<svg width="32" height="32" viewBox="0 0 32 32" fill="none" xmlns="http://www.w3.org/2000/svg">
<g clip-path="url(#clip0_530_19737)">
<path d="M15.9998 4C13.5722 3.99985 11.2016 4.73598 9.20113 6.11119C7.20064 7.48639 5.66428 9.43599 4.79492 11.7026C3.92555 13.9691 3.76407 16.4461 4.33179 18.8064C4.89952 21.1666 6.16974 23.2992 7.97475 24.9225C8.72759 23.4411 9.87584 22.1971 11.2923 21.3283C12.7087 20.4594 14.3381 19.9997 15.9998 20C15.0108 20 14.0441 19.7068 13.2219 19.1573C12.3997 18.6079 11.7588 17.827 11.3804 16.9134C11.0019 15.9998 10.9029 14.9945 11.0958 14.0245C11.2888 13.0546 11.765 12.1637 12.4642 11.4645C13.1635 10.7652 14.0544 10.289 15.0243 10.0961C15.9942 9.90315 16.9995 10.0022 17.9132 10.3806C18.8268 10.759 19.6077 11.3999 20.1571 12.2221C20.7065 13.0444 20.9998 14.0111 20.9998 15C20.9998 16.3261 20.473 17.5979 19.5353 18.5355C18.5976 19.4732 17.3258 20 15.9998 20C17.6613 19.9996 19.2906 20.4591 20.707 21.3277C22.1234 22.1964 23.2717 23.4401 24.0248 24.9212C25.8293 23.2979 27.0991 21.1654 27.6666 18.8053C28.234 16.4453 28.0724 13.9686 27.2031 11.7023C26.3338 9.43605 24.7977 7.48665 22.7975 6.11151C20.7973 4.73637 18.4271 4.00013 15.9998 4Z" fill="#807D73"/>
<path d="M16 20C18.7614 20 21 17.7614 21 15C21 12.2386 18.7614 10 16 10C13.2386 10 11 12.2386 11 15C11 17.7614 13.2386 20 16 20Z" stroke="white" stroke-width="2" stroke-linecap="round" stroke-linejoin="round"/>
<path d="M7.97461 24.9214C8.727 23.4394 9.87506 22.1947 11.2915 21.3253C12.708 20.4558 14.3376 19.9956 15.9996 19.9956C17.6616 19.9956 19.2912 20.4558 20.7077 21.3253C22.1242 22.1947 23.2722 23.4394 24.0246 24.9214" stroke="white" stroke-width="2" stroke-linecap="round" stroke-linejoin="round"/>
<path d="M27.8333 14.0001C28.2551 16.5067 27.8694 19.0826 26.7319 21.3558C25.5943 23.629 23.7637 25.4818 21.5044 26.6468C19.2451 27.8117 16.6741 28.2285 14.1625 27.8369C11.6509 27.4453 9.32875 26.2656 7.53133 24.4682C5.73392 22.6708 4.55425 20.3486 4.16267 17.8371C3.77108 15.3255 4.18785 12.7544 5.35279 10.4951C6.51773 8.23585 8.37056 6.40526 10.6437 5.26769C12.9169 4.13011 15.4928 3.74442 17.9995 4.1663" stroke="white" stroke-width="2" stroke-linecap="round" stroke-linejoin="round"/>
<path d="M23 7L25 9L29 5" stroke="white" stroke-width="2" stroke-linecap="round" stroke-linejoin="round"/>
</g>
<defs>
<clipPath id="clip0_530_19737">
<rect width="32" height="32" fill="white"/>
</clipPath>
</defs>
</svg>
