<svg width="93" height="32" viewBox="0 0 93 32" fill="none" xmlns="http://www.w3.org/2000/svg">
<path d="M87.9986 4.9992H81.9983V0H72.9988L66.9985 4.9992H61.4987L58.998 7.49989V4.9992H53.9988V0H35.9999V4.9992H16.0009L10.9996 0H0V21.9991L4.9992 27.2486L13.9986 31.9975H19.999V30.498L22.9981 31.9975H34.9988L36.9989 28.9984L37.9979 31.9975H44.9972V28.9984L47.9962 31.9975H55.9967L56.4973 28.9984L58.998 31.9975H68.9986L71.9977 28.9984V31.9975H75.9979L78.997 28.9984V31.9975H85.9963L92.9956 25.9971V10.0006L87.9964 5.00139L87.9986 4.9992ZM12.9997 12.9997H8.00047V19H12.9997V25.0004H6.00035L2.00012 21.0001V2.00012H8.00047V6.99932H12.9997V12.9997ZM35.9999 21.5007L32.5003 25.0004H14.9998V6.99932H21.0001V19H23.0003V6.99932H29.0006V19H31.0007V6.99932H35.9999V21.4985V21.5007ZM44.0004 25.0004H38V6.99932H44.0004V24.9982V25.0004ZM44.0004 4.9992H38V2.00012H44.0004V4.9992ZM57.0001 12.9997H52.0009V19H57.0001V25.0004H50.0008L46.0005 21.0001V2.00012H52.0009V6.99932H57.0001V12.9997ZM71.9999 12.9997H65.0005V19H71.9999V25.0004H63.0004L59.0002 21.0001V10.9996L63.0004 6.99932H71.9999V12.9997ZM90.9999 25.0004H84.9995V12.9997H80.0003V25.0004H74V2.00012H80.0003V6.99932H86.9997L90.9999 10.9996V25.0004Z" fill="#0D0D0B"/>
</svg>
