<svg width="153" height="26" viewBox="0 0 153 26" fill="none" xmlns="http://www.w3.org/2000/svg">
<path d="M42.9943 3.21727C42.9943 3.21727 41.151 4.99704 39.5648 4.99704C38.7024 4.95606 37.8557 5.23839 37.1905 5.78876C36.4891 6.39701 35.946 7.16656 35.608 8.03121V7.63581C35.5964 7.08379 35.3691 6.55827 34.9746 6.17195C34.5801 5.78562 34.0499 5.56926 33.4978 5.56926C32.9457 5.56926 32.4155 5.78562 32.021 6.17195C31.6265 6.55827 31.3991 7.08379 31.3876 7.63581V18.7135C31.3991 19.2655 31.6265 19.791 32.021 20.1774C32.4155 20.5637 32.9457 20.78 33.4978 20.78C34.0499 20.78 34.5801 20.5637 34.9746 20.1774C35.3691 19.791 35.5964 19.2655 35.608 18.7135V13.4378C35.8716 11.1953 37.0587 9.87642 38.9058 9.48101C39.0376 9.48101 39.1694 9.48101 39.1694 9.34921C43.5215 8.16209 42.9943 3.21727 42.9943 3.21727ZM150.884 20.6923H152.995V0.248535H150.884V20.6923ZM136.903 8.95381C138.246 8.25016 139.74 7.88772 141.256 7.89849C143.894 7.89849 145.476 9.21741 145.476 11.8553V12.3825C144.07 11.93 142.601 11.7072 141.124 11.7225C137.562 11.7225 135.056 13.3051 135.056 16.471C135.056 19.5043 137.694 20.9559 140.332 20.9559C141.329 20.9909 142.319 20.7806 143.216 20.3437C144.113 19.9068 144.889 19.2565 145.476 18.4499V20.6923H147.587V11.8553C147.587 8.03029 145.344 6.04867 141.519 6.04867C139.739 6.06786 137.984 6.47287 136.375 7.2358L136.903 8.95381ZM137.167 16.3402C137.167 14.4968 138.618 13.3069 141.387 13.3069C142.822 13.2792 144.25 13.5025 145.608 13.9668V15.4176C145.608 17.66 143.497 19.3743 140.859 19.3743C138.751 19.2416 137.168 18.1863 137.168 16.3402H137.167ZM130.176 3.01911H132.55V0.643936H130.176V3.01911ZM130.308 20.6933H132.419V6.18416H130.308V20.6933ZM122.263 20.9569C123.376 20.9579 124.475 20.7097 125.48 20.2305C126.485 19.7512 127.369 19.053 128.069 18.1872L126.75 16.8683C126.211 17.5026 125.545 18.0178 124.796 18.3811C124.047 18.7445 123.23 18.9481 122.398 18.9789C121.676 18.9649 120.963 18.8056 120.304 18.5106C119.644 18.2156 119.05 17.7909 118.558 17.2618C118.066 16.7327 117.685 16.11 117.438 15.4307C117.192 14.7514 117.084 14.0295 117.122 13.3078C117.122 10.1428 119.365 7.63673 122.266 7.63673C123.116 7.64846 123.951 7.85708 124.706 8.24618C125.461 8.63529 126.116 9.19427 126.618 9.87918L128.069 8.42845C127.379 7.59454 126.512 6.92486 125.53 6.4681C124.549 6.01134 123.478 5.77895 122.395 5.78784C121.415 5.78992 120.444 5.98677 119.541 6.36697C118.637 6.74717 117.817 7.30313 117.13 8.00259C116.443 8.70204 115.902 9.53104 115.538 10.4415C115.173 11.3519 114.994 12.3256 115.009 13.306C114.954 14.2916 115.101 15.2781 115.441 16.2048C115.782 17.1315 116.307 17.979 116.987 18.6953C117.666 19.4116 118.484 19.9816 119.392 20.3703C120.299 20.7591 121.276 20.9583 122.264 20.9559L122.263 20.9569ZM105.776 20.9569C106.766 20.9685 107.749 20.782 108.666 20.4082C109.584 20.0345 110.417 19.4812 111.118 18.7807C111.818 18.0803 112.371 17.2469 112.745 16.3295C113.119 15.4121 113.305 14.4292 113.294 13.4387C113.305 12.4531 113.12 11.4751 112.75 10.5613C112.381 9.64757 111.834 8.8162 111.141 8.11535C110.447 7.41451 109.622 6.85811 108.713 6.47838C107.803 6.09865 106.827 5.90312 105.841 5.90312C104.856 5.90312 103.88 6.09865 102.97 6.47838C102.061 6.85811 101.235 7.41451 100.542 8.11535C99.8493 8.8162 99.3021 9.64757 98.9325 10.5613C98.5629 11.4751 98.3782 12.4531 98.3892 13.4387C98.3741 14.4191 98.5538 15.3928 98.9181 16.3032C99.2824 17.2135 99.8239 18.0425 100.511 18.7418C101.198 19.4412 102.018 19.9971 102.922 20.3772C103.826 20.7573 104.796 20.954 105.776 20.9559L105.776 20.9569ZM105.776 7.76761C106.498 7.78169 107.21 7.94096 107.87 8.23596C108.53 8.53095 109.123 8.95564 109.616 9.48475C110.108 10.0139 110.489 10.6366 110.735 11.3158C110.982 11.9951 111.089 12.7171 111.051 13.4387C111.051 16.6038 108.941 18.978 105.776 18.978C105.053 18.9639 104.341 18.8047 103.681 18.5097C103.021 18.2147 102.428 17.79 101.935 17.2609C101.443 16.7318 101.063 16.109 100.816 15.4298C100.569 14.7505 100.462 14.0286 100.5 13.3069C100.633 10.2727 102.743 7.76669 105.776 7.76669L105.776 7.76761ZM91.6628 20.9569C94.5642 20.9569 96.8067 19.3743 96.8067 16.6047C96.8067 13.9668 94.4324 13.1751 92.19 12.5161C90.3466 11.9889 88.4968 11.4608 88.4968 10.0101C88.4968 8.82293 89.5521 7.89941 91.2665 7.89941C92.7851 7.95869 94.2527 8.46319 95.4868 9.35014L96.4085 7.76761C94.8657 6.79077 93.0897 6.24438 91.2646 6.18508C88.495 6.18508 86.3843 7.89941 86.3843 10.2737C86.3843 12.9115 88.8904 13.7032 91.1328 14.3622C92.9762 14.8894 94.6942 15.4176 94.6942 16.8683C94.6942 18.319 93.5071 19.1107 91.7927 19.1107C89.9661 19.0574 88.2066 18.4103 86.7806 17.2674L85.7253 18.8499C87.4109 20.201 89.5035 20.9431 91.6637 20.9559L91.6628 20.9569ZM75.0449 16.4701C75.0449 19.8997 76.7592 20.955 79.397 20.955C80.2055 20.9634 81.0092 20.8295 81.7713 20.5596C82.0788 20.4226 82.3412 20.2012 82.528 19.9211C82.7148 19.641 82.8183 19.3137 82.8266 18.9771C82.8186 18.5249 82.6354 18.0936 82.3156 17.7738C81.9958 17.454 81.5645 17.2708 81.1123 17.2628H80.5851C79.6634 17.2628 79.2662 16.7356 79.2662 15.812V9.34921H81.1095C81.5993 9.34921 82.069 9.15466 82.4153 8.80836C82.7616 8.46206 82.9561 7.99237 82.9561 7.50263C82.9561 7.01288 82.7616 6.54319 82.4153 6.19689C82.069 5.85059 81.5993 5.65604 81.1095 5.65604H79.2662V3.81268C79.2546 3.26065 79.0272 2.73513 78.6328 2.34881C78.2383 1.96249 77.7081 1.74613 77.156 1.74613C76.6038 1.74613 76.0737 1.96249 75.6792 2.34881C75.2847 2.73513 75.0573 3.26065 75.0458 3.81268L75.0449 16.4701ZM72.9342 18.7126V7.63489C72.9401 7.35406 72.8899 7.07489 72.7864 6.81373C72.683 6.55257 72.5285 6.31468 72.332 6.114C72.1355 5.91332 71.9009 5.75389 71.6419 5.64504C71.383 5.5362 71.1049 5.48013 70.824 5.48013C70.5431 5.48013 70.2651 5.5362 70.0061 5.64504C69.7472 5.75389 69.5126 5.91332 69.3161 6.114C69.1195 6.31468 68.965 6.55257 68.8616 6.81373C68.7582 7.07489 68.708 7.35406 68.7138 7.63489V14.0977C68.7138 16.0766 67.6585 17.131 66.076 17.131C64.4935 17.131 63.5699 16.0756 63.5699 14.0977V7.63489C63.5584 7.08287 63.331 6.55735 62.9365 6.17102C62.542 5.7847 62.0119 5.56834 61.4598 5.56834C60.9076 5.56834 60.3775 5.7847 59.983 6.17102C59.5885 6.55735 59.3611 7.08287 59.3496 7.63489V15.4166C59.3496 18.8462 61.1929 20.9559 64.3617 20.9559C65.2246 20.9394 66.0707 20.7149 66.8284 20.3016C67.586 19.8882 68.2328 19.2983 68.7138 18.5817V18.7135C68.708 18.9943 68.7582 19.2735 68.8616 19.5346C68.965 19.7958 69.1195 20.0337 69.3161 20.2344C69.5126 20.4351 69.7472 20.5945 70.0061 20.7033C70.2651 20.8122 70.5431 20.8682 70.824 20.8682C71.1049 20.8682 71.383 20.8122 71.6419 20.7033C71.9009 20.5945 72.1355 20.4351 72.332 20.2344C72.5285 20.0337 72.683 19.7958 72.7864 19.5346C72.8899 19.2735 72.9401 18.9934 72.9342 18.7126ZM41.5436 13.306C41.5422 14.3507 41.7514 15.385 42.1586 16.347C42.5657 17.3091 43.1626 18.1793 43.9135 18.9056C44.6644 19.6319 45.554 20.1995 46.5291 20.5744C47.5042 20.9493 48.5449 21.1239 49.589 21.0877C50.6302 21.1127 51.666 20.9304 52.6361 20.5515C53.6063 20.1725 54.4914 19.6045 55.24 18.8804C55.9886 18.1563 56.5858 17.2906 56.9969 16.3336C57.4079 15.3766 57.6246 14.3475 57.6343 13.306C57.6357 12.2613 57.4265 11.227 57.0194 10.2649C56.6122 9.30286 56.0153 8.43269 55.2644 7.70638C54.5135 6.98007 53.6239 6.41251 52.6488 6.03759C51.6737 5.66267 50.633 5.48808 49.589 5.52424C48.5421 5.47686 47.4966 5.64373 46.5165 6.01461C45.5364 6.38549 44.6423 6.95258 43.8891 7.68113C43.1359 8.40969 42.5393 9.28436 42.136 10.2516C41.7327 11.2188 41.5311 12.2581 41.5436 13.306ZM53.4139 13.306C53.4521 13.8304 53.3813 14.3571 53.2061 14.8529C53.0309 15.3487 52.7549 15.8029 52.3957 16.1869C52.0365 16.5709 51.6016 16.8764 51.1186 17.0842C50.6356 17.2921 50.1148 17.3977 49.589 17.3946C49.0596 17.3897 48.5364 17.2797 48.0499 17.0708C47.5635 16.862 47.1233 16.5585 46.7552 16.1781C46.387 15.7977 46.0981 15.3479 45.9053 14.8548C45.7125 14.3617 45.6197 13.8353 45.6322 13.306C45.594 12.7815 45.6648 12.2549 45.84 11.7591C46.0153 11.2633 46.2912 10.8091 46.6504 10.4251C47.0097 10.0411 47.4445 9.73558 47.9275 9.52774C48.4105 9.31991 48.9313 9.21425 49.4572 9.21741C51.8314 9.08561 53.4139 10.9317 53.4139 13.306ZM13.977 7.63489V23.1984C13.9712 23.4792 14.0214 23.7584 14.1248 24.0195C14.2282 24.2807 14.3827 24.5186 14.5793 24.7193C14.7758 24.92 15.0104 25.0794 15.2694 25.1882C15.5283 25.2971 15.8064 25.3531 16.0872 25.3531C16.3681 25.3531 16.6462 25.2971 16.9051 25.1882C17.1641 25.0794 17.3987 24.92 17.5952 24.7193C17.7917 24.5186 17.9462 24.2807 18.0496 24.0195C18.1531 23.7584 18.2033 23.4792 18.1974 23.1984V18.7135C18.7433 19.4165 19.4436 19.9844 20.2442 20.3733C21.0448 20.7621 21.9241 20.9615 22.8141 20.9559C26.3755 20.9559 29.5424 18.1863 29.5424 13.1742C29.5424 8.16209 26.2446 5.39244 22.8141 5.39244C21.9092 5.3807 21.0151 5.591 20.2102 6.00491C19.4054 6.41883 18.7143 7.02374 18.1974 7.76669V7.63489C18.1859 7.08287 17.9585 6.55735 17.564 6.17102C17.1695 5.7847 16.6394 5.56834 16.0872 5.56834C15.5351 5.56834 15.0049 5.7847 14.6105 6.17102C14.216 6.55735 13.9886 7.08287 13.977 7.63489ZM25.3202 13.1742C25.3202 15.6802 23.6059 17.2628 21.7588 17.2628C19.78 17.2628 18.1974 15.5484 18.1974 13.1742C18.1974 10.6681 19.78 9.08561 21.7588 9.08561C23.6022 8.95381 25.3202 10.6681 25.3202 13.1742ZM0.787796 19.2416C0.548899 19.0813 0.352195 18.8657 0.214369 18.6132C0.076542 18.3606 0.00165814 18.0785 -0.00392875 17.7909C-0.0116374 17.5637 0.0274346 17.3373 0.110859 17.1258C0.194284 16.9144 0.320282 16.7223 0.481035 16.5615C0.641788 16.4008 0.833863 16.2748 1.04534 16.1914C1.25682 16.1079 1.48319 16.0689 1.7104 16.0766C1.99482 16.0828 2.27075 16.1746 2.50212 16.3402C3.66729 17.1501 5.04079 17.608 6.4589 17.6591C7.64602 17.6591 8.17323 17.2637 8.17323 16.6038C8.17323 15.6821 6.7225 15.4166 5.13997 14.8894C3.02932 14.2295 0.655073 13.3069 0.655073 10.4045C0.655073 7.37129 3.02932 5.65604 6.06258 5.65604C7.67668 5.65834 9.26427 6.06658 10.6793 6.84316C10.9918 6.97318 11.2589 7.19288 11.4467 7.47453C11.6345 7.75618 11.7347 8.08716 11.7346 8.42569C11.7266 8.87784 11.5434 9.30923 11.2236 9.629C10.9038 9.94877 10.4724 10.132 10.0203 10.14C9.74958 10.161 9.47785 10.1157 9.22855 10.0082C8.2384 9.51096 7.16581 9.19861 6.0635 9.08654C5.00817 9.08654 4.48097 9.48194 4.48097 10.1419C4.48097 10.9336 5.9317 11.329 7.51422 11.9852C9.62487 12.6451 11.9991 13.6995 11.9991 16.4701C11.9991 19.7679 9.49307 21.3504 6.32802 21.3504C4.32397 21.1639 2.40863 20.4349 0.787796 19.2416Z" fill="#0D0D0B"/>
</svg>
