<svg width="120" height="38" viewBox="0 0 120 38" fill="none" xmlns="http://www.w3.org/2000/svg">
<path d="M72.5564 8.81277C73.9258 8.9545 75.3078 8.91386 76.6665 8.69189C76.9189 8.60579 77.1869 8.57502 77.4522 8.60167C77.6633 8.65761 77.9502 8.89667 77.9691 9.0789C77.9575 9.20224 77.9159 9.32088 77.848 9.42449C77.7801 9.5281 77.6879 9.61354 77.5794 9.6734C77.2919 9.75815 76.9897 9.78121 76.6926 9.74105C75.5885 9.70677 74.4834 9.67881 73.3819 9.60573C73.0693 9.55541 72.7491 9.62121 72.4817 9.79072C72.2143 9.96023 72.0182 10.2217 71.9303 10.5259C70.8884 12.9923 69.7914 15.4352 68.7017 17.8809C68.293 18.7974 67.832 19.6915 67.4288 20.6107C67.046 21.3254 66.9186 22.1494 67.0679 22.9463C67.1154 23.2289 67.2248 23.4976 67.3882 23.733C67.5516 23.9685 67.765 24.1649 68.0131 24.3083C68.2612 24.4517 68.538 24.5386 68.8236 24.5626C69.1091 24.5867 69.3965 24.5473 69.6651 24.4474C70.0993 24.3162 70.501 24.0952 70.8441 23.7987C71.1873 23.5021 71.4642 23.1367 71.657 22.7262C72.3952 21.3721 73.3182 20.1273 74.3995 19.0275C75.4025 17.9394 76.6246 17.0761 77.9854 16.4943C78.4679 16.3052 78.9002 16.007 79.2484 15.6231C79.5966 15.2393 79.8513 14.7801 79.9926 14.2814C80.6286 12.4131 81.2664 10.5439 81.9773 8.70181C82.6904 6.67747 83.6661 4.75548 84.8794 2.98507C85.4016 2.20822 86.0434 1.51889 86.7811 0.94267C87.4139 0.465927 88.1584 0.1595 88.9435 0.05269C89.7286 -0.0541199 90.528 0.0422622 91.2651 0.332614C92.0023 0.622965 92.6527 1.09758 93.1541 1.71107C93.6555 2.32457 93.9911 3.05643 94.1288 3.83667C94.2205 4.26613 94.2081 4.71127 94.0928 5.13497C93.9774 5.55868 93.7625 5.94866 93.4658 6.2724C93.1729 6.59974 92.7895 6.83278 92.3641 6.94199C91.9386 7.0512 91.4904 7.03165 91.0761 6.88584C90.7351 6.78478 90.4328 6.58259 90.2092 6.30601C89.9856 6.02943 89.8513 5.6915 89.8239 5.3369C89.7877 4.62658 90.0123 3.9275 90.4554 3.37118C90.6667 3.11257 90.8622 2.84144 91.0409 2.55927C91.1876 2.35156 91.2713 2.1059 91.2818 1.85181C91.2923 1.59772 91.2292 1.34599 91.1001 1.12688C90.971 0.907764 90.7814 0.730583 90.5541 0.616612C90.3267 0.502641 90.0713 0.456725 89.8185 0.48439C89.5159 0.457137 89.2113 0.503546 88.9305 0.61964C88.6498 0.735735 88.4014 0.918069 88.2064 1.15106C87.7485 1.68104 87.3737 2.27753 87.095 2.92012C85.7903 6.36313 84.7262 9.8926 83.9105 13.4831C83.8519 13.7446 83.8172 14.0109 83.8068 14.2787C83.7869 14.8804 83.9719 15.1808 84.5285 15.1105C85.5846 14.9617 86.6307 14.7481 87.6606 14.4709C87.8627 14.4195 87.9935 14.0857 88.1559 13.8818C88.3642 13.5448 88.6166 13.2371 88.9065 12.967C89.1839 12.7446 89.5177 12.6038 89.8706 12.5603C90.2235 12.5169 90.5815 12.5725 90.9046 12.721C91.2276 12.8695 91.503 13.1051 91.6998 13.4012C91.8966 13.6974 92.007 14.0424 92.0188 14.3978C92.0376 15.0307 91.946 15.662 91.7481 16.2634C91.3873 17.548 90.902 18.7983 90.5591 20.0875C90.4135 20.7077 90.3678 21.3473 90.4238 21.9819C90.4582 22.4109 90.6071 22.8228 90.855 23.1745C90.9564 23.3309 91.0915 23.4625 91.2504 23.5599C91.4093 23.6572 91.588 23.7176 91.7733 23.7368C91.9587 23.756 92.1459 23.7335 92.3214 23.6709C92.4969 23.6082 92.6561 23.507 92.7874 23.3748C93.1408 23.068 93.422 22.687 93.611 22.2589C94.005 21.3018 94.3312 20.3181 94.5871 19.3153C94.8641 18.1804 94.9877 17.0094 95.2249 15.8647C95.3397 15.2754 95.5191 14.7006 95.7599 14.1506C95.9402 13.7485 96.2443 13.4146 96.6277 13.1974C97.0112 12.9803 97.454 12.8914 97.8916 12.9436C98.0775 12.929 98.2643 12.9548 98.4393 13.0192C98.6142 13.0836 98.7732 13.1851 98.9053 13.3168C99.0373 13.4484 99.1393 13.607 99.2043 13.7818C99.2693 13.9566 99.2957 14.1433 99.2817 14.3292C99.2394 14.9258 99.109 15.5128 98.8947 16.0712C98.5492 17.0473 98.0576 17.9765 97.7635 18.9661C97.5356 19.8368 97.3847 20.7258 97.3124 21.6229C97.2914 21.9901 97.3498 22.3575 97.4838 22.7C97.5199 22.8747 97.6043 23.0357 97.7275 23.1648C97.8506 23.2938 98.0075 23.3857 98.1803 23.43C98.353 23.4743 98.5348 23.4691 98.7048 23.4152C98.8748 23.3613 99.0263 23.2607 99.1419 23.1249C99.414 22.8755 99.6251 22.5668 99.759 22.2228C100.095 21.3153 100.362 20.3834 100.661 19.4614C101.074 18.1903 101.438 16.9003 101.929 15.6599C102.2 15.011 102.582 14.4142 103.057 13.8962C103.302 13.6067 103.609 13.376 103.955 13.2213C104.302 13.0666 104.679 12.992 105.058 13.0028C105.437 13.0136 105.809 13.1097 106.146 13.2839C106.482 13.4581 106.776 13.7059 107.004 14.009C107.153 14.1849 107.301 14.3617 107.511 14.6125C107.826 14.3915 108.114 14.1795 108.413 13.981C109.001 13.562 109.67 13.2696 110.377 13.122C111.084 12.9745 111.814 12.9752 112.52 13.124C113.23 13.2166 113.877 13.5784 114.327 14.1345C114.777 14.6906 114.997 15.3985 114.94 16.1118C114.89 17.0112 114.716 17.8993 114.421 18.7505C114.069 19.8331 113.574 20.8615 113.13 21.908C112.413 23.4695 112.145 25.2005 112.359 26.9057C112.446 27.4631 112.651 27.9955 112.961 28.4673C113.321 29.0203 113.901 28.9499 114.268 28.3897C114.413 28.1687 114.491 27.9035 114.617 27.668C114.896 27.143 115.248 26.9589 115.54 27.1691C115.831 27.3793 115.834 27.7654 115.512 28.2445C115.2 28.7265 114.735 29.0899 114.192 29.2765C113.707 29.4429 113.191 29.5037 112.681 29.4546C112.17 29.4056 111.676 29.248 111.231 28.9923C110.786 28.7366 110.401 28.3888 110.101 27.9721C109.802 27.5554 109.595 27.0796 109.495 26.5764C109.28 25.348 109.414 24.084 109.88 22.9274C110.234 21.8827 110.661 20.8624 111.023 19.8196C111.368 18.9449 111.538 18.0109 111.523 17.0708C111.456 15.8213 110.86 14.9625 109.927 14.7938C109.437 14.7319 108.942 14.8471 108.53 15.1186C108.118 15.3901 107.817 15.8 107.681 16.2742C107.351 17.042 107.109 17.8445 106.96 18.6666C106.698 20.1145 106.542 21.5814 106.334 23.0392C106.296 23.3371 106.235 23.6317 106.153 23.9206C106.096 24.2015 105.979 24.4667 105.81 24.6978C105.641 24.929 105.423 25.1207 105.172 25.2596C104.922 25.3984 104.644 25.4812 104.358 25.5022C104.072 25.5232 103.785 25.4819 103.517 25.3811C103.173 25.2846 102.878 25.0601 102.694 24.7536C102.509 24.4471 102.449 24.0816 102.525 23.732C102.629 23.1731 102.768 22.6213 102.943 22.0803C103.279 20.8561 103.669 19.6445 103.946 18.4068C104.077 17.7169 104.125 17.0135 104.088 16.3121C104.074 16.1719 104.026 16.0372 103.948 15.9196C103.871 15.8019 103.766 15.7048 103.643 15.6364C103.502 15.6236 103.36 15.6424 103.227 15.6916C103.094 15.7408 102.974 15.819 102.876 15.9206C102.627 16.1909 102.439 16.5115 102.326 16.8606C102.021 17.7447 101.773 18.6486 101.491 19.5408C101.147 20.6233 100.841 21.7248 100.421 22.7794C100.17 23.3988 99.8198 23.9734 99.3846 24.4808C98.9867 24.9427 98.456 25.2704 97.8649 25.4193C97.2737 25.5682 96.6511 25.5309 96.0819 25.3126C95.682 25.1598 95.3377 24.8897 95.0941 24.5376C94.5754 23.8385 94.5907 23.7916 93.9051 24.3689C93.165 25.0655 92.1973 25.47 91.1816 25.5074C90.3832 25.5258 89.5865 25.4264 88.8172 25.2124C88.2576 25.0624 87.7666 24.7247 87.4265 24.2558C87.0864 23.7869 86.9177 23.2153 86.9489 22.6369C86.985 21.8708 87.0968 21.1103 87.2826 20.3662C87.4694 19.4497 87.749 18.5503 87.9141 17.631C88.0792 16.7117 87.8239 16.442 86.874 16.6125C85.924 16.783 85.0021 17.0997 84.0702 17.3586C83.8268 17.4254 83.6084 17.5621 83.442 17.7518C83.2755 17.9415 83.1684 18.1758 83.1338 18.4258C82.7666 19.9882 82.3643 21.5426 81.9908 23.1042C81.3548 26.116 80.5414 29.0876 79.5551 32.0036C79.0616 33.4296 78.3567 34.7735 77.464 35.9901C76.072 37.8196 74.2046 38.0911 72.0512 37.4903C71.424 37.284 70.8609 36.9189 70.4166 36.4304C69.9724 35.9419 69.6622 35.3467 69.5163 34.7027C69.0866 33.2877 68.9736 31.7955 69.1852 30.332C69.379 28.6678 69.8022 27.0384 70.4427 25.4903C70.4719 25.3822 70.4889 25.2711 70.4933 25.1592C70.4047 25.1378 70.3128 25.1335 70.2226 25.1466C69.6479 25.3908 69.0242 25.498 68.4009 25.4597C67.7776 25.4213 67.1717 25.2385 66.6313 24.9256C66.2314 24.6852 65.7747 24.5558 65.3082 24.5507C64.8417 24.5456 64.3822 24.6651 63.9773 24.8967C62.9399 25.3942 61.775 25.562 60.6394 25.3775C59.5543 25.1932 58.565 24.6431 57.836 23.8185C57.107 22.994 56.6822 21.9447 56.6322 20.8453C56.542 19.9161 56.5781 18.9752 56.5528 18.0397C56.5483 17.8782 56.5284 17.7158 56.5086 17.474C55.3698 17.4917 54.2474 17.7483 53.2141 18.2273C52.7071 18.47 52.5988 19.0094 52.4797 19.4903C52.1081 20.9833 51.758 22.4826 51.4224 23.9846C50.8394 27.1115 49.9545 30.1744 48.7801 33.1303C48.3788 34.0884 47.8675 34.9967 47.2564 35.8367C45.7824 37.7817 44.5501 38.0018 42.1044 37.6049C41.457 37.4715 40.8581 37.1643 40.3721 36.7163C39.8861 36.2682 39.5312 35.6963 39.3457 35.0618C38.8487 33.7386 38.6652 32.3181 38.8099 30.912C38.9532 29.3439 39.2864 27.799 39.8022 26.3112C40.0705 25.7499 40.1821 25.1265 40.1252 24.507C38.2908 25.4843 36.1596 25.7481 34.1423 25.2476C33.5572 25.109 32.9913 24.8993 32.4572 24.6233C32.2236 24.4924 31.9612 24.4215 31.6935 24.4171C31.4258 24.4127 31.1613 24.4749 30.9235 24.5981C30.6533 24.732 30.3749 24.8486 30.09 24.9472C29.4532 25.2188 28.751 25.2987 28.0695 25.1771C27.388 25.0554 26.7568 24.7376 26.2533 24.2625C25.6083 23.696 25.5469 23.6545 24.9488 24.3031C23.5821 25.7862 20.6953 25.7122 19.4008 25.0167C18.7622 24.6738 18.2243 24.1701 17.8404 23.5553C17.4565 22.9406 17.24 22.2362 17.2122 21.5119C17.0728 20.2096 17.169 18.8929 17.4964 17.6247C17.7102 16.8245 17.5965 16.7099 16.8126 16.8182C16.7133 16.8317 16.6159 16.8579 16.5176 16.8768C14.4662 17.2756 14.3381 17.3775 13.8311 19.4109C13.0128 22.6892 12.2776 25.9883 11.3872 29.244C10.9096 30.8808 10.3163 32.4816 9.61185 34.0343C9.22756 34.8502 8.73242 35.6091 8.14048 36.2896C7.77299 36.7736 7.2903 37.158 6.73633 37.4079C6.18236 37.6578 5.57469 37.7652 4.96863 37.7203C4.40107 37.7287 3.83388 37.6874 3.27354 37.5967C2.55257 37.4156 1.89639 37.037 1.37878 36.5035C0.861159 35.9699 0.502621 35.3026 0.343455 34.5764C-0.0644602 33.0121 -0.113804 31.3759 0.199112 29.7898C0.772951 26.2704 2.17213 22.9369 4.28211 20.0622C5.39546 18.4947 6.92372 17.2685 8.69529 16.5214C9.3002 16.278 9.8402 15.8972 10.2726 15.4092C10.7051 14.9212 11.0181 14.3393 11.1869 13.7095C12.2262 10.1388 13.6827 6.70294 15.5262 3.47312C16.0705 2.54646 16.7727 1.72214 17.601 1.0374C18.164 0.581643 18.8255 0.263489 19.533 0.108233C20.2404 -0.0470229 20.9744 -0.0350986 21.6765 0.143045C22.3785 0.321189 23.0294 0.660644 23.5772 1.13443C24.1251 1.60822 24.5549 2.20328 24.8324 2.87231C25.0457 3.31238 25.1569 3.79485 25.158 4.28386C25.1591 4.77287 25.05 5.25582 24.8387 5.69684C24.6244 6.17716 24.2461 6.56544 23.7715 6.79208C23.2968 7.01873 22.757 7.06892 22.2488 6.93365C21.9925 6.881 21.7505 6.77367 21.5395 6.61898C21.3285 6.46429 21.1533 6.2659 21.026 6.03733C20.8987 5.80877 20.8221 5.55542 20.8016 5.29457C20.7812 5.03373 20.8172 4.77154 20.9073 4.52589C21.1368 4.00931 21.4039 3.51029 21.7066 3.03289C21.9455 2.64084 22.1168 2.21149 22.2136 1.7627C22.2329 1.60333 22.2181 1.44168 22.1702 1.28846C22.1223 1.13524 22.0424 0.993944 21.9358 0.873933C21.8292 0.753922 21.6983 0.657937 21.5518 0.592337C21.4052 0.526736 21.2465 0.493015 21.0859 0.493413C20.6849 0.429186 20.274 0.478267 19.8994 0.635112C19.5248 0.791958 19.2015 1.05033 18.9659 1.3811C18.5858 1.88938 18.2757 2.44647 18.044 3.03739C16.824 6.26264 15.8491 9.5753 15.1274 12.9472C15.0355 13.3729 14.9689 13.8037 14.928 14.2372C14.8712 14.8498 15.0823 15.1096 15.7156 15.1321C16.9962 15.1837 18.2654 14.8739 19.3782 14.2381C20.4247 13.5987 21.6042 13.2084 22.8255 13.0974C24.0468 12.9863 25.2773 13.1575 26.422 13.5976C26.7858 13.7663 27.1831 13.8507 27.5841 13.8443C27.9851 13.8378 28.3794 13.7409 28.7377 13.5606C29.0474 13.3824 29.4074 13.3117 29.7615 13.3595C30.1156 13.4073 30.444 13.571 30.6953 13.825C30.9554 14.0664 31.1434 14.3753 31.2382 14.7173C31.3329 15.0593 31.3308 15.4209 31.2321 15.7618C31.0786 16.4507 30.7348 17.0827 30.2397 17.5859C29.6162 18.2645 29.1401 19.065 28.8413 19.9368C28.5426 20.8086 28.4277 21.7329 28.5041 22.6513C28.4933 22.8892 28.5617 23.1239 28.6987 23.3187C28.8357 23.5135 29.0334 23.6573 29.2609 23.7275C29.4871 23.7982 29.7293 23.7986 29.9557 23.7289C30.1821 23.6592 30.3821 23.5225 30.5293 23.3369C31.1306 22.6524 31.524 21.8106 31.6633 20.9102C31.9754 19.438 32.228 17.9531 32.5068 16.4736C32.91 14.3383 33.2285 12.1804 33.7445 10.0739C34.2777 8.02364 35.2384 6.10926 36.5636 4.45643C37.235 3.52073 38.2272 2.86473 39.3512 2.6134C40.6141 2.35268 41.3313 2.76315 41.4666 4.05048C41.5504 4.91511 41.5027 5.78745 41.325 6.63776C40.7836 9.86749 39.2281 12.841 36.8839 15.1276C36.2896 15.6799 35.891 16.4103 35.7481 17.2088C35.3914 18.5044 35.3182 19.8616 35.5334 21.1881C35.5875 21.4154 35.638 21.6445 35.7138 21.8656C36.4148 23.9711 37.9953 24.6441 39.9808 23.64C40.6099 23.3505 41.1473 22.8936 41.5343 22.3192C41.9212 21.7449 42.1428 21.0752 42.1748 20.3834C42.2471 19.8954 42.133 19.3982 41.8551 18.9906C41.5773 18.583 41.1561 18.295 40.6755 18.184C40.1646 18.0266 39.6669 17.8294 39.187 17.594C38.7521 17.3654 38.4153 16.9861 38.2398 16.5272C38.0643 16.0682 38.0621 15.5611 38.2334 15.1006C38.3884 14.614 38.7249 14.206 39.173 13.9612C39.6211 13.7164 40.1463 13.6537 40.6394 13.7862C41.1016 13.8767 41.5392 14.0647 41.9229 14.3377C42.3067 14.6107 42.6278 14.9624 42.8649 15.3694C43.3794 16.2369 43.6831 17.213 43.7517 18.2192C43.7697 18.442 43.7932 18.6639 43.8248 18.9914C44.0287 18.8326 44.1631 18.7433 44.2758 18.6306C45.2407 17.6944 46.373 16.948 47.6137 16.4303C48.1263 16.2207 48.5862 15.9004 48.9605 15.4922C49.3348 15.0841 49.6142 14.5982 49.7788 14.0694C50.6538 11.6815 51.528 9.2936 52.4752 6.93456C53.1745 5.08129 54.1863 3.36161 55.4666 1.8502C55.9783 1.25022 56.6196 0.774282 57.342 0.458298C58.0645 0.142313 58.8492 -0.00546439 59.6371 0.0261162C60.7079 0.131328 61.711 0.597701 62.4815 1.34858C63.2521 2.09946 63.7442 3.09016 63.8771 4.15783C63.9368 4.53287 63.9079 4.91667 63.7928 5.27857C63.6778 5.64048 63.4797 5.97046 63.2144 6.24217C62.949 6.51388 62.6239 6.71978 62.2648 6.84345C61.9058 6.96712 61.5228 7.00511 61.1464 6.9544C60.8863 6.93432 60.634 6.85658 60.4077 6.72684C60.1814 6.59709 59.9868 6.4186 59.8381 6.20431C59.6893 5.99001 59.5902 5.74529 59.5478 5.4879C59.5054 5.23051 59.5208 4.96692 59.5929 4.71624C59.7578 4.10671 60.0475 3.53808 60.4436 3.04642C60.7094 2.74572 60.8687 2.36584 60.897 1.96551C60.9252 1.56518 60.8207 1.1667 60.5997 0.831708C60.2571 0.588347 59.8472 0.457609 59.427 0.457609C59.0067 0.457609 58.5968 0.588347 58.2542 0.831708C57.5002 1.40624 56.9546 2.21155 56.7007 3.1249C55.9926 5.35584 55.2853 7.5895 54.671 9.84751C54.2325 11.4587 53.924 13.1069 53.5983 14.7469C53.4053 15.7194 53.556 15.8647 54.5726 15.778C55.8181 15.7667 57.0403 15.4389 58.1243 14.8254C58.2688 14.7403 58.4221 14.6713 58.5817 14.6197C58.9343 14.4329 59.3316 14.3468 59.7299 14.3711C60.1282 14.3953 60.5121 14.5289 60.8394 14.7571C61.1668 14.9853 61.4249 15.2994 61.5853 15.6648C61.7458 16.0301 61.8024 16.4327 61.749 16.8281C61.6571 17.9985 61.2582 19.124 60.5925 20.0911C60.1813 20.7359 59.853 21.43 59.6155 22.1569C59.5316 22.4222 59.509 22.703 59.5492 22.9783C59.5894 23.2535 59.6915 23.5161 59.8478 23.7462C60.0041 23.9764 60.2105 24.1681 60.4515 24.3071C60.6925 24.446 60.9618 24.5286 61.2393 24.5485C61.8036 24.6032 62.3731 24.5496 62.9173 24.3906C64.3715 23.9765 64.9019 23.281 64.6647 21.8069C64.0332 17.9495 65.0327 14.3707 66.3453 10.8263C66.4689 10.4916 66.5763 10.1506 66.726 9.71038C65.6541 9.48488 64.546 9.49503 63.4784 9.74015C63.1921 9.78538 62.9349 9.94112 62.7622 10.1739C62.5894 10.4067 62.5149 10.6979 62.5546 10.9851C62.5824 11.2932 62.5328 11.6034 62.4104 11.8876C62.2879 12.1717 62.0964 12.4207 61.8533 12.6121C61.6102 12.8035 61.3232 12.9312 61.0183 12.9836C60.7134 13.0359 60.4002 13.0113 60.1071 12.912C59.8862 12.86 59.6786 12.7622 59.4977 12.6249C59.3169 12.4877 59.1668 12.314 59.0572 12.1152C58.9477 11.9163 58.881 11.6967 58.8615 11.4705C58.8421 11.2443 58.8703 11.0166 58.9443 10.8019C59.0676 10.3624 59.3033 9.96255 59.6283 9.64188C59.9532 9.32121 60.3561 9.09079 60.7973 8.97335C61.4755 8.80432 62.1733 8.72665 62.8722 8.74241C64.0449 8.74241 65.2177 8.81006 66.3841 8.89035C66.6136 8.91862 66.846 8.86864 67.0436 8.74847C67.2412 8.62831 67.3925 8.445 67.473 8.2282C68.2253 6.84886 69.0138 5.48575 69.8464 4.15332C70.1221 3.70719 70.5176 3.34755 70.9879 3.11546C71.4581 2.88336 71.9841 2.78817 72.5059 2.84074C73.3494 2.87953 73.7617 3.2521 73.7418 4.09017C73.7164 4.72376 73.6174 5.35225 73.4468 5.96297C73.2096 6.8669 72.892 7.74737 72.5564 8.81277ZM0.801735 31.8349C0.739747 33.0719 0.99894 34.3038 1.5541 35.4109C1.75349 35.8315 2.06561 36.1886 2.45579 36.4425C2.84597 36.6964 3.29891 36.8371 3.76426 36.8489C4.2296 36.8608 4.68912 36.7434 5.09174 36.5098C5.49435 36.2761 5.82428 35.9354 6.04486 35.5255C6.55039 34.6614 6.91377 33.7218 7.12109 32.7424C7.91586 29.1854 8.63484 25.6112 9.35834 22.0388C9.57349 21.0257 9.7343 20.0018 9.84008 18.9716C9.92308 18.0694 9.58207 17.8322 8.68717 18.0153C8.48772 18.0422 8.29483 18.1052 8.11793 18.2011C7.42776 18.6044 6.77021 19.0611 6.1513 19.567C4.72376 20.942 3.58339 22.5868 2.79632 24.4059C1.65334 26.7285 0.97546 29.2522 0.800826 31.8349H0.801735ZM69.8699 31.9576C69.797 33.1389 70.0359 34.3186 70.5627 35.3784C70.7643 35.7978 71.077 36.1538 71.4667 36.4078C71.8565 36.6619 72.3084 36.8042 72.7735 36.8194C73.2385 36.8346 73.6987 36.722 74.1042 36.4938C74.5097 36.2657 74.8449 35.9308 75.0733 35.5255C75.4614 34.9382 75.7438 34.2876 75.9078 33.6031C76.9308 28.7939 77.9042 23.9738 78.8848 19.1547C78.9183 18.9567 78.9183 18.7545 78.8848 18.5566C78.8244 18.129 78.5844 17.88 78.1297 17.9612C77.7971 17.9904 77.4724 18.0787 77.1708 18.2219C76.5262 18.5727 75.9242 18.9965 75.3765 19.4849C72.0526 22.8122 70.0892 27.2596 69.8699 31.9576ZM39.5848 31.9874C39.5582 33.134 39.7946 34.2715 40.2758 35.3126C40.486 35.7732 40.8251 36.1631 41.252 36.4352C41.6789 36.7073 42.1755 36.8501 42.6818 36.8462C43.1729 36.8575 43.6554 36.716 44.0626 36.4412C44.4698 36.1665 44.7817 35.7722 44.9551 35.3126C45.3751 34.403 45.7012 33.4529 45.9285 32.4772C46.8306 28.1948 47.6759 23.8998 48.5302 19.6067C48.5909 19.2774 48.607 18.9415 48.578 18.608C48.5365 18.0667 48.3074 17.8331 47.795 17.9765C47.1222 18.1538 46.4825 18.4386 45.9005 18.82C44.4256 19.9304 43.2074 21.3459 42.3291 22.9698C40.6833 25.7027 39.7404 28.8009 39.5848 31.9874ZM25.2781 14.1696C24.6834 14.1186 24.0857 14.2242 23.5444 14.4759C23.0032 14.7275 22.5372 15.1164 22.1928 15.6039C21.139 17.0542 20.6798 18.8526 20.9091 20.6306C20.9716 21.1343 21.1939 21.6048 21.5435 21.9729C21.8931 22.341 22.3515 22.5873 22.8514 22.6757C23.3031 22.7379 23.7629 22.6559 24.1653 22.4415C24.5677 22.227 24.8921 21.8909 25.0922 21.4813C25.2406 21.259 25.3618 21.0197 25.4531 20.7686C25.9475 19.2115 26.4229 17.649 26.91 16.0893C27.3349 14.7271 26.6872 14.2156 25.4359 14.1678C25.3833 14.1645 25.3306 14.1651 25.2781 14.1696ZM36.062 14.2661L36.3282 14.3752C36.9022 14.0532 37.3795 13.5831 37.7102 13.0139C39.2444 10.7782 40.272 8.2346 40.7215 5.56063C40.8031 5.10036 40.8046 4.62945 40.726 4.16866C40.6475 3.64092 40.2163 3.49838 39.869 3.89802C39.4736 4.34827 39.1399 4.84913 38.8766 5.38742C37.7394 7.7293 36.8592 10.1875 36.2515 12.719C36.1586 13.2306 36.0954 13.7472 36.062 14.2661ZM67.9718 16.4249C69.0724 15.6364 70.7783 11.9368 71.1726 9.73835C70.9073 9.72121 70.6448 9.72301 70.3886 9.68422C70.2757 9.65559 70.158 9.65107 70.0431 9.67094C69.9283 9.69081 69.819 9.73464 69.7222 9.79957C69.6255 9.8645 69.5435 9.94907 69.4816 10.0478C69.4197 10.1465 69.3792 10.2572 69.3629 10.3725C69.1067 11.2007 68.772 12.0045 68.5185 12.8335C68.265 13.6626 68.0458 14.4988 67.869 15.3441C67.8552 15.7073 67.8898 16.0708 67.9718 16.4249ZM69.9971 8.87862C70.4119 8.90432 70.8281 8.89859 71.242 8.86149C71.3482 8.84093 71.4484 8.79678 71.5352 8.73229C71.622 8.6678 71.6933 8.58463 71.7436 8.48891C72.1396 7.15197 72.5095 5.806 72.8451 4.45282C72.9227 4.14069 72.8658 3.69684 72.477 3.64091C72.2813 3.61204 72.026 3.94583 71.8068 4.11904C71.7824 4.13799 71.7734 4.17587 71.758 4.20925C71.0325 5.70986 70.4431 7.27259 69.9971 8.87862Z" fill="#0D0D0B"/>
<path d="M115.753 23.4385H117.507V23.7993H116.817V25.6297H116.444V23.7993H115.754L115.753 23.4385Z" fill="#0D0D0B"/>
<path d="M117.764 23.4385H118.3L118.894 25.1345L119.469 23.4385H119.996V25.6036H119.642V23.9346L119.038 25.6018H118.732L118.128 23.9346V25.6018H117.767L117.764 23.4385Z" fill="#0D0D0B"/>
</svg>
