<svg width="145" height="34" viewBox="0 0 145 34" fill="none" xmlns="http://www.w3.org/2000/svg">
<mask id="mask0_3107_1024" style="mask-type:luminance" maskUnits="userSpaceOnUse" x="-1" y="0" width="146" height="34">
<path d="M144.996 0.625H-0.00390625V33.6587H144.996V0.625Z" fill="white"/>
</mask>
<g mask="url(#mask0_3107_1024)">
<path d="M37.0694 9.15644C37.0694 3.35644 31.0175 0.625 23.7476 0.625C16.0553 0.666688 8.91044 4.11316 6.30497 9.40838C5.56008 10.8188 5.1841 12.3947 5.21203 13.9895C5.20537 15.3422 5.5845 16.6689 6.30497 17.8138C7.39791 19.4107 9.37263 20.5453 12.3569 20.5453C15.9293 20.5453 18.7913 18.5697 18.7913 15.1241C18.7907 14.9846 18.7614 14.8466 18.7051 14.7189C18.6489 14.5912 18.5669 14.4765 18.4644 14.3819C18.3618 14.2872 18.2409 14.2147 18.1091 14.1689C17.9773 14.1231 17.8375 14.1049 17.6983 14.1154C17.5578 14.0991 17.4154 14.1132 17.2808 14.1569C17.1462 14.2006 17.0226 14.2729 16.9185 14.3687C16.8144 14.4646 16.7322 14.5817 16.6776 14.7123C16.6229 14.8428 16.597 14.9836 16.6018 15.125C16.7278 17.8564 15.1309 19.958 12.2726 19.958C9.07809 19.958 7.69153 17.2266 7.69153 14.41C7.64984 8.44231 12.105 4.49197 16.812 2.76828C18.9816 1.92734 21.2932 1.51346 23.6198 1.54937C28.915 1.50769 33.2442 3.48241 33.2442 8.94619C33.1744 11.1896 32.2773 13.3279 30.7255 14.9495C29.1736 16.571 27.0768 17.5613 24.8387 17.7296L25.0906 17.0952C26.0993 13.7747 27.1922 10.1606 29.041 7.47081C29.2244 7.22906 29.393 6.97636 29.5457 6.71409L29.2938 6.33619C28.9159 6.58813 28.5371 6.84097 28.2009 7.09291C19.3749 13.859 19.1647 33.0243 7.52297 33.0243C7.11273 33.0409 6.70225 32.9984 6.30406 32.8984C5.7764 32.8597 5.26163 32.7169 4.78951 32.4781C4.3174 32.2393 3.89729 31.9093 3.55347 31.5071C3.20965 31.105 2.94894 30.6387 2.78641 30.1352C2.62388 29.6317 2.56276 29.101 2.60656 28.5738C2.60656 28.069 2.73253 27.4808 2.73253 27.2289C2.73856 26.9251 2.62909 26.6303 2.42624 26.4041C2.22338 26.1778 1.94225 26.037 1.63959 26.01H1.47194C0.463282 26.01 -0.00343669 26.8927 -0.00343669 27.9847C-0.129405 31.3052 2.47606 33.2799 6.30044 33.6587H7.64984C16.6861 33.6587 22.2332 26.8501 24.7127 18.4863C25.926 18.3554 27.123 18.1018 28.2852 17.7296C32.3633 16.9728 37.0685 14.1154 37.0685 9.15553M123.519 11.1312H120.325L119.568 12.853L118.353 15.7132H116.839L116.335 16.7218H117.805L116.084 20.6722C114.739 23.5305 112.64 26.3462 111.502 26.3462C111.451 26.3534 111.399 26.3487 111.35 26.3322C111.301 26.3158 111.256 26.2882 111.219 26.2515C111.183 26.2149 111.155 26.1702 111.139 26.1211C111.122 26.0719 111.117 26.0196 111.125 25.9683C111.195 25.5469 111.322 25.1369 111.502 24.7494C111.88 23.8667 112.511 22.6478 112.973 21.6817C113.608 20.3368 114.695 18.238 114.695 17.2266C114.707 16.9696 114.663 16.713 114.566 16.4746C114.47 16.2362 114.322 16.0217 114.134 15.8458C113.946 15.6699 113.723 15.5369 113.478 15.456C113.234 15.375 112.975 15.3481 112.72 15.3769C111.137 15.5157 109.673 16.2704 108.641 17.4785L109.398 15.6289H106.414L103.934 21.1769C102.926 23.1526 100.95 26.3426 99.7312 26.3426C99.6799 26.3498 99.6276 26.345 99.5784 26.3286C99.5292 26.3122 99.4846 26.2846 99.4479 26.2479C99.4113 26.2113 99.3837 26.1666 99.3672 26.1174C99.3508 26.0683 99.346 26.016 99.3533 25.9647C99.3793 25.6967 99.4654 25.438 99.6052 25.2079C99.7312 24.956 101.202 21.5095 101.202 21.5095L103.933 15.4576H100.739L98.1335 21.3836C97.3767 23.2332 95.2752 26.3426 94.0553 26.3426C93.8034 26.3426 93.6774 26.2166 93.5506 25.9647V25.8387C93.6285 25.3783 93.7552 24.9275 93.9285 24.4938L95.0214 21.6355L97.8797 15.5836H94.6852L94.0508 16.9284C93.8638 17.4805 93.5155 17.9637 93.0511 18.3159C92.5867 18.6681 92.0274 18.8729 91.4453 18.9041C91.2458 18.9333 91.042 18.9006 90.8616 18.8103C90.6812 18.72 90.5329 18.5766 90.4367 18.3993C90.431 17.9659 90.3352 17.5385 90.1553 17.1442C89.9754 16.7499 89.7153 16.3973 89.3917 16.109C89.0681 15.8207 88.6881 15.603 88.2757 15.4696C87.8633 15.3362 87.4277 15.2901 86.9966 15.3343C85.815 15.3597 84.66 15.6902 83.6437 16.2936C82.6275 16.897 81.7845 17.7528 81.1966 18.7781C80.3615 20.0892 79.6976 21.5017 79.2209 22.9813C78.128 24.8309 76.8647 26.3018 75.9004 26.3018C75.6485 26.3018 75.5225 26.1758 75.5225 25.797C75.5225 25.4182 75.9004 24.7883 75.9004 24.4521L78.002 19.997C78.57 19.0197 78.9145 17.9287 79.0107 16.8025C79.0244 16.5782 78.9883 16.3537 78.9048 16.1452C78.8212 15.9366 78.6925 15.7492 78.5277 15.5965C78.363 15.4437 78.1665 15.3294 77.9522 15.2618C77.738 15.1942 77.5114 15.1751 77.2888 15.2057C76.4238 15.2695 75.5813 15.5118 74.8146 15.9174C74.0478 16.3229 73.3733 16.8828 72.8337 17.5619V16.8052C72.8694 16.5874 72.8527 16.3643 72.7851 16.1543C72.7175 15.9442 72.6009 15.7533 72.4448 15.5972C72.2888 15.4412 72.0979 15.3245 71.8878 15.2569C71.6778 15.1893 71.4546 15.1727 71.2369 15.2084C70.4289 15.2894 69.6474 15.5414 68.9443 15.9477C68.2412 16.3539 67.6325 16.9051 67.1587 17.5646L68.0414 15.463H65.0599L62.6184 21.0501C61.5255 23.6555 59.5508 26.2157 58.5403 26.2157C58.2884 26.2157 58.1624 26.0897 58.1624 25.7109C58.3577 24.9503 58.6107 24.2056 58.9191 23.4833L62.2396 16.0865C62.4916 15.4522 60.8947 15.2038 58.9191 15.2038C56.8052 15.2779 54.7896 16.1149 53.2451 17.5601C52.1522 18.4428 51.3954 18.905 50.8888 18.905C50.6369 18.905 50.6369 18.779 50.6369 18.653C50.6369 18.1482 51.7298 16.9312 51.7298 15.9216C51.7298 15.4168 51.4779 15.1649 50.8472 15.1649C49.7542 15.1649 48.2417 16.2578 47.2747 17.3924L48.1574 15.2908H45.3091L42.8685 20.925C41.7756 23.5305 39.8009 26.2202 38.6653 26.2202C38.4134 26.2202 38.2874 26.0943 38.2874 25.7154C38.4329 24.8821 38.7322 24.083 39.1701 23.3592L42.4906 15.9624C42.7426 15.328 41.1458 15.0797 39.1701 15.0797C37.7275 15.1603 36.3225 15.5697 35.0623 16.2765C33.8021 16.9833 32.7202 17.9689 31.8993 19.1578C30.1774 21.3854 29.041 23.7389 29.041 25.5922C28.9985 25.9172 29.0292 26.2476 29.1308 26.5593C29.2323 26.871 29.4022 27.156 29.628 27.3936C29.8538 27.6312 30.1298 27.8154 30.4359 27.9327C30.742 28.0501 31.0704 28.0975 31.3972 28.0717C33.1191 28.0717 34.5917 26.7268 35.4753 25.5922C35.4753 25.8441 35.3494 25.9701 35.3494 26.2266C35.3494 27.3195 35.7273 28.0762 37.0712 28.0762C38.1642 28.0762 39.8027 27.0676 40.8956 25.5967L39.8852 27.8125H42.9528L46.0205 20.8779C47.0291 18.6503 48.1221 17.4341 48.5 17.4341C48.6259 17.4341 48.6259 17.4341 48.6259 17.5601C48.6259 17.812 48.1212 18.4428 48.1212 19.0309C48.1149 19.1724 48.1396 19.3135 48.1936 19.4445C48.2475 19.5754 48.3294 19.693 48.4334 19.789C48.5375 19.8851 48.6613 19.9573 48.7961 20.0005C48.9309 20.0438 49.0736 20.0571 49.2141 20.0396C49.9602 19.9386 50.6764 19.6807 51.3157 19.2829C49.7189 21.3845 48.7102 23.612 48.7102 25.4608C48.6678 25.7858 48.6984 26.1162 48.8 26.4279C48.9016 26.7396 49.0715 27.0246 49.2973 27.2622C49.5231 27.4998 49.7991 27.684 50.1052 27.8013C50.4113 27.9186 50.7397 27.9661 51.0665 27.9403C52.7883 27.9403 54.261 26.3435 55.1446 25.3348V26.0906C55.1253 26.3276 55.1556 26.566 55.2336 26.7906C55.3116 27.0153 55.4356 27.2212 55.5976 27.3952C55.7596 27.5692 55.9561 27.7076 56.1746 27.8014C56.3931 27.8953 56.6287 27.9426 56.8665 27.9403C58.2113 27.9403 59.2227 27.0576 60.5649 25.4608L59.5562 27.6883H62.7507L65.735 21.0057C66.9539 18.1473 68.7193 16.5505 69.5594 16.5505C69.6107 16.5433 69.663 16.5481 69.7122 16.5645C69.7613 16.5809 69.806 16.6085 69.8427 16.6452C69.8793 16.6818 69.9069 16.7265 69.9234 16.7757C69.9398 16.8248 69.9446 16.8771 69.9373 16.9284V17.0544C69.9134 17.4028 69.8281 17.7443 69.6854 18.0631L65.4822 27.6874H68.6767L71.661 20.8788C72.8799 18.0205 74.3924 16.5496 75.3594 16.5496C75.7373 16.5496 75.8642 16.6756 75.8642 17.0544C75.8454 17.4307 75.7601 17.8008 75.6122 18.1473L72.7503 24.8327C72.5237 25.4319 72.3547 26.0512 72.2455 26.6824C72.2455 27.6911 72.7503 28.4043 74.2212 28.4043C76.0708 28.4043 77.4157 27.0594 79.0542 24.9605V25.3384C79.1802 27.0603 80.1471 28.4061 82.6266 28.4061C85.6109 28.4061 87.9218 26.4305 89.3093 23.2405C89.835 22.1115 90.1756 20.9052 90.318 19.668C90.6414 19.7967 90.9807 19.8814 91.3266 19.92C91.8032 19.9361 92.2731 19.8041 92.6715 19.5421L92.1667 20.635C91.5323 21.8539 90.9478 23.2405 90.4448 24.3334C90.1021 24.9874 89.8868 25.7006 89.8105 26.435C89.7883 26.7 89.8242 26.9667 89.9157 27.2165C90.0072 27.4662 90.152 27.693 90.34 27.8811C90.5281 28.0691 90.7549 28.2139 91.0046 28.3054C91.2544 28.3968 91.5211 28.4328 91.7861 28.4106C93.131 28.4106 94.8537 27.1917 96.1152 25.4263C96.2169 25.7813 96.2594 26.1505 96.2412 26.5193C96.2412 27.5279 96.4931 28.3689 97.838 28.3689C99.3089 28.3689 100.569 27.276 101.788 25.8894L100.78 28.117H103.974L106.58 22.317C108.051 18.9965 109.564 17.0218 110.909 17.0218C111.161 17.0218 111.287 17.1478 111.413 17.3997V17.5257C111.089 18.7784 110.594 19.9806 109.942 21.0981C109.308 22.443 108.849 23.5776 108.471 24.2926C108.144 24.9973 107.93 25.749 107.837 26.5202C107.824 26.7608 107.864 27.0012 107.955 27.2245C108.045 27.4478 108.183 27.6486 108.36 27.8128C108.536 27.9769 108.746 28.1004 108.975 28.1746C109.205 28.2488 109.447 28.2718 109.686 28.2421C111.536 28.2421 113.385 26.3924 114.519 25.0475C114.273 25.6772 114.145 26.347 114.141 27.0232C114.099 27.3979 114.14 27.7773 114.26 28.1346C114.381 28.4919 114.578 28.8184 114.839 29.0911C115.099 29.3637 115.416 29.5758 115.768 29.7124C116.119 29.8489 116.497 29.9067 116.873 29.8815C117.912 29.8747 118.918 29.5195 119.731 28.8728C120.932 27.9455 121.969 26.823 122.799 25.5523L122.164 25.0475C121.494 26.088 120.656 27.0108 119.685 27.779C119.238 28.1627 118.676 28.386 118.088 28.4133C117.454 28.4133 116.995 28.0354 116.995 27.1944C117.124 25.9546 117.466 24.7462 118.004 23.622C118.004 23.622 118.887 21.6464 119.726 19.7976C120.482 18.2008 121.071 16.73 121.197 16.3539H123.298L123.676 15.3452H121.575L123.519 11.1312ZM32.7403 26.4722C32.2355 26.4722 31.9836 26.3462 31.9836 25.7154C31.9836 24.1186 33.3284 21.3863 34.9678 19.1587C36.0608 17.6879 37.5733 16.4273 39.171 16.4273L37.1954 21.0084C35.556 24.3706 33.9592 26.4722 32.7403 26.4722ZM52.6198 26.4722C52.115 26.4722 51.8631 26.3462 51.8631 25.7154C51.8631 24.1186 53.2079 21.3863 54.8473 19.1587C55.9403 17.6879 57.4528 16.4273 59.0505 16.4273L57.0749 21.0084C55.4781 24.4965 53.8387 26.4722 52.6198 26.4722ZM87.9227 17.6888C87.3948 20.6849 86.2652 23.543 84.6022 26.0906C83.8455 27.0993 83.2574 27.4355 82.7526 27.4355C81.9959 27.4355 81.7439 26.8011 81.8699 25.9647C82.4087 23.1869 83.4946 20.544 85.0644 18.1899C85.9471 17.097 86.4093 16.5931 87.0401 16.5931C87.7968 16.4672 87.9227 16.971 87.9227 17.6861M137.6 15.5845L140.583 8.78125H137.139L134.155 15.5899H126.758L125.539 18.4482H132.936L129.953 25.2533H133.397L136.381 18.4446H143.778L144.997 15.5872L137.6 15.5845Z" fill="#0D0D0B"/>
</g>
</svg>
