<svg width="66" height="42" viewBox="0 0 66 42" fill="none" xmlns="http://www.w3.org/2000/svg">
<mask id="mask0_3107_1032" style="mask-type:luminance" maskUnits="userSpaceOnUse" x="-1" y="1" width="67" height="37">
<path d="M65.9961 1.93945H-0.00390625V37.6328H65.9961V1.93945Z" fill="white"/>
</mask>
<g mask="url(#mask0_3107_1032)">
<path d="M56.151 37.6325C56.0635 37.6042 55.9713 37.5938 55.8798 37.6018C54.407 37.5241 52.9694 37.1228 51.6693 36.4264C51.1281 36.1251 50.6165 35.7733 50.1414 35.3759C50.0994 35.3542 50.063 35.3231 50.0351 35.2849C50.0072 35.2467 49.9886 35.2026 49.9808 35.156C49.973 35.1094 49.9762 35.0616 49.9901 35.0164C50.004 34.9712 50.0283 34.9299 50.0609 34.8958C50.5871 34.0453 51.1142 33.1948 51.6422 32.3444C51.6694 32.2819 51.7181 32.2312 51.7795 32.2017C51.841 32.1721 51.9109 32.1656 51.9767 32.1834C52.045 32.2078 52.1053 32.2503 52.1512 32.3064C52.6193 32.7593 53.1592 33.1317 53.7488 33.4085C54.3916 33.7038 55.0763 33.8975 55.7785 33.9826C56.2231 34.0435 56.6716 34.0707 57.1202 34.064C57.9698 34.0612 58.8049 33.8435 59.5478 33.4311C60.0553 33.1501 60.4943 32.7602 60.8332 32.2893C61.1721 31.8185 61.4025 31.2784 61.5078 30.7079C61.5796 30.3488 61.6171 29.9838 61.62 29.6176C61.6272 29.2722 61.62 28.9259 61.62 28.5806C61.62 28.5462 61.62 28.5119 61.6127 28.4685C61.5458 28.492 61.5223 28.5399 61.4934 28.5779C61.0333 29.1494 60.4935 29.6518 59.8904 30.0696C59.0871 30.6215 58.1504 30.9474 57.1781 31.0135C55.4134 31.153 53.6641 30.5983 52.3022 29.4675C51.0551 28.4489 50.133 27.0878 49.6496 25.5518C49.4126 24.8529 49.2649 24.1269 49.2101 23.391C49.0612 21.6522 49.3274 19.903 49.9868 18.2873C50.4912 17.0308 51.3126 15.9266 52.3709 15.0822C53.2788 14.372 54.348 13.897 55.4836 13.6993C56.6192 13.5017 57.7861 13.5876 58.8805 13.9494C59.9619 14.3104 60.8909 15.0239 61.5187 15.9755C61.5422 16.0107 61.5567 16.0586 61.6245 16.0803V15.923C61.6245 15.4125 61.6245 14.9017 61.6245 14.3906C61.6229 14.339 61.6247 14.2873 61.6299 14.236C61.6369 14.1792 61.6626 14.1263 61.7028 14.0856C61.7431 14.0449 61.7956 14.0186 61.8523 14.0108C61.8824 14.0087 61.9126 14.0087 61.9427 14.0108C63.191 14.0108 64.4393 14.0108 65.6876 14.0108C65.7489 14.0051 65.8105 14.0172 65.8652 14.0455C65.9199 14.0739 65.9653 14.1174 65.9959 14.1709V30.264C65.9741 30.2994 65.9651 30.3412 65.9705 30.3825C65.9133 31.6475 65.5297 32.8762 64.857 33.949C64.1843 35.0219 63.2454 35.9025 62.1317 36.5051C60.9559 37.1013 59.6761 37.4648 58.3624 37.5755C58.2519 37.5671 58.1409 37.5864 58.0397 37.6316L56.151 37.6325ZM61.6208 22.0818C61.6131 21.7628 61.5857 21.4445 61.5386 21.1289C61.4219 20.3505 61.124 19.6103 60.6688 18.9681C60.1781 18.2533 59.4353 17.7504 58.5894 17.5604C58.0366 17.4475 57.4661 17.4537 56.9159 17.5785C56.0928 17.7338 55.3448 18.1584 54.7894 18.7854C54.3619 19.2722 54.0525 19.8511 53.8853 20.477C53.6973 21.1648 53.6312 21.8802 53.69 22.5908C53.7224 23.1058 53.8299 23.6133 54.0092 24.0971C54.1773 24.5654 54.4373 24.9954 54.7741 25.3617C55.1109 25.728 55.5175 26.0232 55.9702 26.2299C56.4348 26.4437 56.9345 26.5711 57.4448 26.606C57.9645 26.66 58.4898 26.6052 58.9872 26.4451C59.7943 26.163 60.4728 25.5997 60.8985 24.8583C61.3876 24.0149 61.6377 23.054 61.6218 22.0791" fill="#0D0D0B"/>
<path d="M-0.00390625 28.2845C0.0200818 28.2753 0.0395452 28.2572 0.0503403 28.2339L1.48968 25.8145C1.50324 25.7919 1.5159 25.7702 1.53037 25.7485C1.55941 25.6946 1.60025 25.648 1.64985 25.6121C1.69944 25.5763 1.7565 25.5521 1.81676 25.5414C1.87702 25.5307 1.93891 25.5338 1.99782 25.5504C2.05672 25.567 2.11111 25.5967 2.15692 25.6373C2.5875 25.9665 3.05398 26.2458 3.54744 26.47C4.43321 26.8787 5.37316 27.1579 6.33842 27.299C6.84353 27.3762 7.35493 27.4044 7.86546 27.3831C8.38748 27.3749 8.90367 27.272 9.38889 27.0793C9.65994 26.9751 9.89966 26.8029 10.0851 26.5794C10.2397 26.386 10.3195 26.1434 10.3099 25.896C10.3003 25.6486 10.2018 25.413 10.0326 25.2322C9.83505 25.0271 9.59666 24.8657 9.33283 24.7585C8.96302 24.6006 8.58 24.4757 8.18823 24.3851C7.43782 24.1979 6.67746 24.0587 5.92796 23.8887C5.05884 23.7116 4.20848 23.4525 3.38831 23.1148C2.85939 22.8933 2.36566 22.5957 1.92275 22.2315C1.23523 21.6654 0.761834 20.8813 0.581053 20.0092C0.353683 19.0636 0.420694 18.071 0.77311 17.1645C1.12553 16.258 1.74652 15.4809 2.55292 14.9371C3.30459 14.4145 4.15338 14.0477 5.04916 13.8585C5.64669 13.7256 6.25546 13.6496 6.86733 13.6316C8.27744 13.5745 9.68544 13.7878 11.0154 14.26C11.9349 14.5886 12.8008 15.0513 13.5849 15.6333C13.6357 15.6598 13.6804 15.6968 13.7158 15.7419C13.7513 15.787 13.7768 15.8391 13.7905 15.8947C13.8043 15.9504 13.8061 16.0084 13.7957 16.0648C13.7853 16.1212 13.7631 16.1747 13.7304 16.2219C13.3191 17.0419 12.8995 17.8592 12.4963 18.6829C12.4674 18.7458 12.4241 18.8011 12.3699 18.8443C12.3157 18.8875 12.2522 18.9173 12.1843 18.9313C12.1165 18.9454 12.0463 18.9434 11.9794 18.9253C11.9125 18.9073 11.8508 18.8738 11.7992 18.8275C10.9517 18.1453 9.94895 17.6826 8.87987 17.4804C8.22831 17.3421 7.56135 17.2905 6.89626 17.3267C6.46422 17.3425 6.03723 17.4251 5.6305 17.5717C5.38113 17.6578 5.15238 17.7949 4.95875 17.9741C4.87393 18.0522 4.80577 18.1466 4.75838 18.2517C4.71099 18.3568 4.68534 18.4704 4.68298 18.5857C4.68061 18.701 4.70158 18.8155 4.74462 18.9225C4.78766 19.0295 4.85189 19.1267 4.93344 19.2082C5.10302 19.3825 5.30554 19.5214 5.52924 19.6168C6.00284 19.8208 6.49603 19.9759 7.00114 20.0797C7.86366 20.2822 8.73522 20.4414 9.59322 20.6692C10.3246 20.8484 11.037 21.0975 11.7206 21.4133C12.246 21.6563 12.731 21.9783 13.159 22.368C13.8022 22.96 14.237 23.7439 14.3986 24.603C14.58 25.4599 14.5418 26.3488 14.2874 27.1869C13.9625 28.2202 13.2921 29.1102 12.3887 29.7076C11.6374 30.2119 10.797 30.5687 9.91237 30.7591C9.30387 30.8968 8.68471 30.9824 8.06166 31.0149C7.51334 31.0498 6.9633 31.0477 6.41527 31.0086C4.56552 30.9007 2.76802 30.3541 1.17144 29.4138C0.850757 29.2163 0.542203 28.9999 0.247436 28.7655C0.151502 28.678 0.0670479 28.5786 -0.00390625 28.4699L-0.00390625 28.2845Z" fill="#0D0D0B"/>
<path d="M42.4377 1.93945C42.4887 1.97353 42.5468 1.99549 42.6076 2.00364C43.4424 2.22774 44.208 2.65693 44.8347 3.25221C45.4614 3.84748 45.9293 4.58996 46.196 5.41214C46.4865 6.23495 46.5559 7.11961 46.3972 7.97764C46.2386 8.83567 45.8574 9.63702 45.2919 10.3016C44.5798 11.2124 43.5838 11.8593 42.4621 12.1396C42.385 12.1697 42.3023 12.1827 42.2197 12.1776C42.1688 12.1742 42.1196 12.1575 42.077 12.1292C42.0345 12.1009 42.0001 12.062 41.9772 12.0163C41.9544 11.9706 41.9439 11.9197 41.9468 11.8687C41.9496 11.8177 41.9659 11.7684 41.9937 11.7255C42.133 11.4724 42.274 11.221 42.3952 10.9589C42.8002 10.0769 43.0676 9.13809 43.188 8.1751C43.2534 7.7052 43.2815 7.23088 43.2721 6.75655C43.2462 5.23056 42.853 3.73329 42.1257 2.39151C42.1072 2.36044 42.0904 2.32845 42.0751 2.29567C42.0594 2.27006 42.0492 2.24143 42.0453 2.21164C42.0413 2.18184 42.0437 2.15155 42.0522 2.12273C42.0607 2.09391 42.0752 2.06721 42.0948 2.04435C42.1143 2.0215 42.1384 2.00301 42.1655 1.99008C42.1854 1.97562 42.2161 1.97381 42.2216 1.94307L42.4377 1.93945Z" fill="#0D0D0B"/>
<path d="M64.8809 37.6328C64.8809 37.3182 64.8809 37 64.8809 36.6899C64.8809 36.6094 64.908 36.5823 64.9876 36.5841C65.238 36.5904 65.1829 36.5605 65.2633 36.7648C65.3109 36.8854 65.358 37.006 65.4044 37.1265C65.4152 37.1554 65.4224 37.1862 65.464 37.2034C65.5282 37.0406 65.5924 36.8788 65.6557 36.7169C65.7118 36.5723 65.6982 36.5913 65.8429 36.5895H65.9975V37.6419H65.7805C65.804 37.4303 65.7877 37.2205 65.7913 37.009L65.7542 37.0036L65.502 37.6419H65.3782C65.3143 37.4067 65.2207 37.1807 65.0997 36.9692V37.6419L64.8809 37.6328Z" fill="#0D0D0B"/>
<path d="M64.1649 37.6327C64.1649 37.3904 64.1649 37.1481 64.1649 36.9094C64.1649 36.7973 64.165 36.7973 64.0556 36.7937C64.0302 36.7937 64.004 36.7937 63.9787 36.7937C63.8648 36.8 63.8548 36.7937 63.8566 36.6581C63.8566 36.6029 63.8856 36.5875 63.9344 36.5884C64.1613 36.5884 64.3865 36.5884 64.6152 36.5884C64.6921 36.5884 64.6965 36.631 64.6947 36.6879C64.6929 36.7449 64.702 36.7964 64.6215 36.7937H64.6062C64.5402 36.7991 64.4561 36.7666 64.4118 36.8109C64.3675 36.8552 64.391 36.9582 64.3892 37.0342C64.3838 37.2349 64.3837 37.4356 64.381 37.6363L64.1649 37.6327Z" fill="#0D0D0B"/>
<path d="M35.7489 16.122L35.7715 16.084C36.2244 15.3636 36.8636 14.7788 37.6213 14.3915C38.3308 14.0093 39.1058 13.7639 39.906 13.6682C40.8528 13.5247 41.8195 13.5864 42.7404 13.849C43.7215 14.1199 44.6112 14.651 45.3151 15.3862C46.0191 16.1213 46.5112 17.0332 46.7393 18.0251C46.8714 18.5297 46.9356 19.0496 46.93 19.5712C46.93 23.1309 46.93 26.6904 46.93 30.2496C46.9328 30.2908 46.9328 30.3322 46.93 30.3735C46.9224 30.4353 46.8936 30.4926 46.8487 30.5357C46.8037 30.5789 46.7453 30.6052 46.6832 30.6103C46.6425 30.6103 46.6009 30.6103 46.5593 30.6103H42.9375C42.9013 30.6103 42.8651 30.6103 42.829 30.6103C42.7614 30.6077 42.6972 30.5799 42.649 30.5324C42.6008 30.4849 42.5722 30.4211 42.5686 30.3536C42.5686 30.302 42.5686 30.2505 42.5686 30.199C42.5686 27.0575 42.5686 23.9157 42.5686 20.7736C42.5771 20.3501 42.5223 19.9278 42.4059 19.5205C42.2919 19.1024 42.0761 18.7191 41.7778 18.4048C41.4794 18.0905 41.1078 17.8551 40.6962 17.7195C39.873 17.4056 38.9647 17.3956 38.1349 17.6915C37.6166 17.8817 37.1492 18.1891 36.7692 18.5896C36.3892 18.9901 36.1069 19.473 35.9442 20.0006C35.7924 20.4457 35.7184 20.9137 35.7254 21.3839C35.7254 24.3192 35.7254 27.2546 35.7254 30.1899C35.7254 30.2415 35.7254 30.293 35.7254 30.3445C35.724 30.4155 35.6948 30.4831 35.6441 30.5328C35.5933 30.5825 35.5252 30.6104 35.4542 30.6103C35.4289 30.6103 35.4026 30.6103 35.3764 30.6103H31.7084C31.6777 30.6103 31.6461 30.6103 31.618 30.6103C31.5505 30.607 31.4865 30.5786 31.4389 30.5306C31.3912 30.4825 31.3632 30.4185 31.3604 30.3509C31.3604 30.3102 31.3604 30.2686 31.3604 30.227V14.0073C31.3604 13.9657 31.3604 13.9241 31.3604 13.8834C31.3637 13.8238 31.3865 13.767 31.4254 13.7217C31.4643 13.6764 31.5171 13.6452 31.5755 13.633C31.6311 13.6214 31.6879 13.6171 31.7446 13.6203H35.3348C35.3813 13.6188 35.4279 13.6209 35.4741 13.6266C35.5446 13.632 35.6102 13.6646 35.657 13.7177C35.7038 13.7707 35.728 13.8399 35.7245 13.9105C35.7245 14.029 35.7245 14.1474 35.7245 14.2667V16.1084L35.7516 16.1247" fill="#0D0D0B"/>
<path d="M20.9615 19.056V30.1983C20.9615 30.2444 20.9615 30.2887 20.9615 30.3375C20.9629 30.3741 20.957 30.4105 20.944 30.4447C20.9311 30.4788 20.9113 30.51 20.886 30.5364C20.8607 30.5627 20.8303 30.5837 20.7966 30.598C20.763 30.6123 20.7268 30.6196 20.6903 30.6196C20.6439 30.6222 20.5974 30.6222 20.551 30.6196H16.9608C16.6832 30.6196 16.591 30.5229 16.591 30.2435C16.591 22.784 16.591 15.3248 16.591 7.86588C16.5881 7.82464 16.5881 7.78326 16.591 7.74202C16.5963 7.67952 16.623 7.62078 16.6667 7.57577C16.7104 7.53077 16.7683 7.5023 16.8306 7.4952C16.8815 7.48782 16.9329 7.48479 16.9843 7.48616H20.5591C20.8765 7.48616 20.9542 7.56391 20.9542 7.87764C20.9542 10.6502 20.9542 13.4204 20.9542 16.1882V19.0515" fill="#0D0D0B"/>
<path d="M28.3581 22.1075V30.1089C28.3581 30.155 28.3581 30.1993 28.3581 30.2481C28.3825 30.5121 28.2297 30.617 27.9964 30.6097C27.3635 30.5998 26.7307 30.6097 26.0933 30.6097C25.4947 30.6097 24.8962 30.6097 24.2977 30.6097C24.2563 30.6148 24.2142 30.6105 24.1747 30.5972C24.1351 30.5838 24.0991 30.5617 24.0692 30.5326C24.0394 30.5034 24.0165 30.4679 24.0022 30.4286C23.9879 30.3894 23.9826 30.3475 23.9867 30.306C23.9867 30.2852 23.9867 30.2644 23.9867 30.2445V14.041C23.9867 13.6966 24.0626 13.6188 24.4017 13.6188H27.9612C28.0128 13.6169 28.0645 13.6193 28.1158 13.626C28.1807 13.6334 28.2406 13.6643 28.2841 13.713C28.3276 13.7617 28.3517 13.8247 28.3517 13.89C28.3517 13.9416 28.3517 13.9931 28.3517 14.0446C28.3517 16.7323 28.3517 19.4199 28.3517 22.1075" fill="#0D0D0B"/>
<path d="M23.5811 7.08374C23.5831 6.5604 23.7403 6.04942 24.0328 5.61548C24.3254 5.18153 24.7401 4.84415 25.2245 4.64603C25.7089 4.44792 26.2412 4.39798 26.754 4.50254C27.2667 4.6071 27.737 4.86146 28.1051 5.23341C28.4733 5.60536 28.7228 6.07819 28.8221 6.59203C28.9214 7.10586 28.866 7.6376 28.6629 8.11994C28.4598 8.60227 28.1182 9.0135 27.6813 9.30157C27.2444 9.58964 26.7318 9.7416 26.2085 9.73821C25.8615 9.73679 25.5183 9.66696 25.1984 9.53272C24.8785 9.39849 24.5882 9.20248 24.3442 8.95592C24.1002 8.70935 23.9071 8.41708 23.7762 8.09582C23.6453 7.77457 23.579 7.43065 23.5811 7.08374Z" fill="#0D0D0B"/>
<path d="M40.0348 7.04637C40.0257 7.8112 39.803 8.55825 39.3918 9.20319C38.9806 9.84813 38.3972 10.3653 37.7077 10.6963C37.4231 10.8424 37.1216 10.9526 36.8099 11.0244C36.7453 11.0437 36.6769 11.0465 36.611 11.0326C36.5825 11.0289 36.5553 11.0183 36.5318 11.0016C36.5084 10.985 36.4894 10.9628 36.4766 10.9371C36.4637 10.9113 36.4573 10.8829 36.4581 10.8541C36.4588 10.8254 36.4666 10.7972 36.4808 10.7722C36.4984 10.7348 36.5183 10.6986 36.5405 10.6637C37.2738 9.34469 37.6006 7.83825 37.4798 6.33393C37.4005 5.31343 37.1108 4.32039 36.6291 3.41727C36.6053 3.37741 36.5836 3.33637 36.564 3.29431C36.5498 3.26805 36.5424 3.2387 36.5423 3.20886C36.5423 3.17903 36.5496 3.14964 36.5636 3.12333C36.5777 3.09701 36.598 3.07458 36.6228 3.05804C36.6477 3.04149 36.6762 3.03135 36.7059 3.0285C36.7664 3.0195 36.8281 3.02382 36.8867 3.04116C37.6729 3.24354 38.3837 3.66943 38.9329 4.26729C39.4822 4.86514 39.8464 5.60935 39.9815 6.40987C40.0154 6.61911 40.0321 6.83079 40.0312 7.04275" fill="#0D0D0B"/>
<path d="M34.1267 7.05341C34.1241 7.49106 34.0223 7.92243 33.8289 8.31504C33.6355 8.70765 33.3555 9.05127 33.0101 9.32001C32.6796 9.58604 32.2966 9.77922 31.8863 9.88689C31.8519 9.89683 31.8158 9.90316 31.7805 9.9113C31.7486 9.92076 31.7146 9.92093 31.6826 9.91181C31.6506 9.90268 31.6218 9.88463 31.5997 9.85976C31.5464 9.79828 31.5753 9.73319 31.6105 9.67352C31.7359 9.46002 31.8441 9.2369 31.9342 9.00628C32.2257 8.27583 32.3543 7.4906 32.3112 6.70533C32.275 5.91942 32.0637 5.15152 31.6928 4.45771C31.6539 4.38628 31.5934 4.31034 31.6576 4.23078C31.7217 4.15122 31.8095 4.16749 31.8999 4.1919C32.4723 4.34265 32.9873 4.65944 33.3801 5.10237C33.7728 5.54529 34.0257 6.09454 34.1068 6.68091C34.1222 6.79845 34.1213 6.91779 34.1294 7.0525" fill="#0D0D0B"/>
</g>
</svg>
