<svg width="111" height="35" viewBox="0 0 111 35" fill="none" xmlns="http://www.w3.org/2000/svg">
<path d="M97.0317 12.9794C96.3239 12.8961 95.9462 12.8545 95.2384 12.8545C94.5306 12.8545 93.8198 12.8961 93.112 12.9377C92.321 13.021 91.8184 13.021 91.1522 13.5623C90.8608 13.7704 89.5671 14.6061 88.6512 15.2723C87.8185 15.8551 87.0661 16.441 86.1917 17.0239C85.6921 17.357 85.1063 17.7317 84.4817 18.1094C84.6483 17.8596 84.6483 17.8179 84.6899 17.7347C85.3977 16.6908 86.0252 15.7748 86.7746 14.734C87.1493 14.2344 87.6073 13.6069 87.9434 13.1072C88.5679 12.1913 90.153 9.93705 90.8192 9.02109C91.4437 8.14676 92.1961 7.31109 92.8206 6.47839C93.8645 5.10147 94.6971 3.64425 95.8659 2.39223C95.9908 2.26733 96.0741 2.01752 95.9908 1.89261C95.8659 1.72607 95.6577 1.68444 95.4495 1.76771C93.9477 2.10079 92.8236 2.22569 91.1136 2.68367C90.2393 2.85021 89.4452 3.10002 89.1538 3.22493C89.0289 3.26656 88.9456 3.51637 88.9872 3.59964C89.0289 3.72454 89.0289 3.80781 89.3203 3.84945C89.5701 3.89108 89.7367 3.80781 90.0697 3.72454C90.1946 3.68291 90.5694 3.59964 90.6943 3.64127C90.6943 3.76618 90.4861 4.09926 90.4028 4.22416C89.5701 5.51781 88.6928 6.76686 87.8185 8.06051C87.4438 8.6434 87.0691 9.22926 86.6914 9.81215C86.1501 10.6032 84.6899 12.6463 84.1487 13.4403C83.7323 14.0648 83.2743 14.734 82.855 15.3585C82.4803 15.9414 82.0223 16.5272 81.6446 17.1518C81.1866 17.8596 80.7287 18.612 80.2677 19.3198C79.7681 20.0692 79.2239 20.8216 78.7243 21.571C77.6804 23.1977 76.6812 24.8245 75.6373 26.4482C75.1377 27.2809 74.6381 28.1166 74.0939 28.9077C73.7608 29.4073 73.4693 29.9515 73.3861 30.5344C73.3444 30.7426 73.4277 30.9924 73.511 31.1173C73.5526 31.2005 73.8441 31.2005 74.0106 31.1173C75.221 30.576 76.4284 29.9902 77.6388 29.4905C78.3049 29.1991 78.4715 29.0742 79.1406 28.7827C79.3904 28.6578 79.5153 28.4913 79.5153 28.3248C79.5153 28.0333 79.2239 27.9917 79.0157 28.0333C78.641 28.075 78.2663 28.2831 78.3079 28.1999C79.7681 25.7821 81.0588 23.4059 82.7688 21.3212C82.8104 21.4461 82.8104 21.571 82.852 21.6959C82.9353 22.1955 83.0186 22.6951 83.1435 23.1977L84.7702 30.7039C84.9784 31.495 85.1866 32.4139 85.4364 33.205C85.7278 34.1209 85.8944 34.5819 86.7717 34.7068C86.7717 34.7068 87.9404 34.915 88.4817 34.915C90.8995 34.8733 90.4831 34.3321 90.4831 34.3321C90.2749 33.8325 89.8586 33.2882 89.6088 32.7886C89.1092 31.7894 88.8593 31.5782 88.6512 30.7872L86.2334 23.5724C85.9419 22.6148 85.6921 21.6543 85.4423 20.6967C85.4007 20.4885 85.3591 20.2387 85.3174 19.9889L86.275 19.6142C86.3999 19.5309 87.0245 19.2395 87.1077 19.1978C88.2765 18.5733 89.4422 17.9874 90.5694 17.3629C91.402 16.8633 93.1537 15.6946 94.031 15.1949C94.7804 14.7786 95.3663 14.5288 96.199 14.1511C96.6153 13.9846 96.9484 13.9013 97.2428 13.4849C97.3677 13.3184 97.2844 13.0269 97.0346 12.9853" fill="#0D0D0B"/>
<path d="M93.8193 26.7399C93.5279 26.6567 93.5695 26.1571 93.736 25.6961C93.9442 24.9883 94.3189 24.4441 94.652 23.8612C94.9851 23.2367 95.4014 22.6092 95.8208 22.0263C96.0289 21.7348 97.281 19.775 97.8222 19.1921C98.5716 18.3594 99.4489 17.5238 100.282 16.9825C100.74 16.6911 100.989 16.4413 101.492 16.1915C101.659 16.1082 102.075 15.9833 102.2 15.9417C103.033 15.6502 103.827 15.5253 104.618 15.6918C104.659 15.6918 104.743 15.6918 104.784 15.7335C104.951 15.7751 104.701 16.0249 104.701 16.0249C101.322 20.0278 94.2357 26.9065 93.8193 26.7399ZM102.075 27.7392C102.366 27.6143 102.491 27.4061 102.366 27.1979C102.325 27.073 102.033 26.9897 101.867 26.9897C101.659 26.9897 101.45 27.073 101.242 27.1563V27.073C101.367 26.9065 101.45 26.8232 101.492 26.6983C102.033 25.8656 102.536 24.9883 103.077 24.1556C103.452 23.5311 103.868 22.9036 104.287 22.3207C104.662 21.7378 105.037 21.1103 105.415 20.5274C105.748 19.9862 106.122 19.4836 106.5 18.9423C106.958 18.2762 107.416 17.6487 107.835 16.9825C108.585 15.8554 109.587 14.8978 110.045 13.5625C110.17 13.1878 110.087 13.1462 109.795 13.1878C109.42 13.1878 109.046 13.2294 108.668 13.2711C108.252 13.3127 107.835 13.3127 107.416 13.3544C106.458 13.4376 105.498 13.4793 104.54 13.6042C103.999 13.6458 103.832 13.6458 103.288 13.7291C102.997 13.7707 102.664 13.8123 102.372 13.854C101.998 13.9372 101.328 14.0205 100.995 14.1038C99.9099 14.3536 98.7858 14.645 97.9084 15.3558C97.159 15.9803 96.4066 16.6078 95.7405 17.3572C94.8661 18.3148 94.1137 19.3587 93.3643 20.4442C92.7814 21.2769 92.2372 22.1542 91.7376 23.0701C91.3212 23.8612 90.9882 24.6552 90.6105 25.4879C90.0276 26.7399 89.525 28.0306 89.6945 29.4492C89.7778 30.2402 90.0276 30.493 90.8216 30.2819C91.1963 30.1986 91.5294 30.0737 91.9071 29.9488C92.9926 29.4492 93.9918 28.8217 94.994 28.0723C95.5769 27.6143 95.7851 27.4061 96.1211 27.073C96.6207 26.5734 97.0371 26.2403 97.5813 25.7377C98.2891 25.1132 98.9582 24.5273 99.666 23.9028C99.7493 23.8612 99.6244 24.1526 99.5828 24.2775C99.208 24.9437 98.875 25.5712 98.4973 26.1957C98.2475 26.6121 98.0809 27.07 97.8311 27.4894C97.4981 28.1555 97.1233 28.8247 96.7873 29.4908C96.704 29.6573 96.7456 29.9488 96.8289 30.1153C96.9122 30.1986 97.2036 30.157 97.4118 30.1153C97.6616 30.0321 97.9114 29.8655 98.1612 29.699C98.7858 29.3659 99.3716 28.9912 99.9961 28.6997C100.662 28.325 101.373 28.0336 102.081 27.7421" fill="#0D0D0B"/>
<path d="M53.5404 26.7399C53.249 26.6567 53.2906 26.1571 53.4571 25.6961C53.6653 24.9883 54.04 24.4441 54.3731 23.8612C54.7062 23.2367 55.1225 22.6092 55.5419 22.0263C55.75 21.7348 57.002 19.775 57.5433 19.1921C58.2927 18.3594 59.17 17.5238 60.0027 16.9825C60.4607 16.6911 60.7105 16.4413 61.2131 16.1915C61.3797 16.1082 61.796 15.9833 61.9209 15.9417C62.7536 15.6502 63.5476 15.5253 64.3387 15.6918C64.3803 15.6918 64.4636 15.6918 64.5052 15.7335C64.6718 15.7751 64.422 16.0249 64.422 16.0249C61.0436 20.0278 53.9568 26.9065 53.5404 26.7399ZM61.796 27.7392C62.0874 27.6143 62.2123 27.4061 62.0874 27.1979C62.0458 27.073 61.7544 26.9897 61.5878 26.9897C61.3796 26.9897 61.1715 27.073 60.9633 27.1563V27.073C61.0882 26.9065 61.1715 26.8232 61.2131 26.6983C61.7544 25.8656 62.257 24.9883 62.7982 24.1556C63.1729 23.5311 63.5893 22.9036 64.0086 22.3207C64.3833 21.7378 64.758 21.1103 65.1357 20.5274C65.4688 19.9862 65.8435 19.4836 66.2212 18.9423C66.6792 18.2762 67.1371 17.6487 67.5565 16.9825C68.3059 15.8554 69.3081 14.8978 69.7661 13.5625C69.891 13.1878 69.8077 13.1462 69.5163 13.1878C69.1416 13.1878 68.7669 13.2294 68.3892 13.2711C67.9728 13.3127 67.5565 13.3127 67.1371 13.3544C66.1795 13.4376 65.219 13.4793 64.2614 13.6042C63.7201 13.6458 63.5536 13.6458 63.0094 13.7291C62.7179 13.7707 62.3848 13.8123 62.0934 13.854C61.7187 13.9372 61.0495 14.0205 60.7165 14.1038C59.631 14.3536 58.5068 14.645 57.6295 15.3558C56.8801 15.9803 56.1277 16.6078 55.4616 17.3572C54.5872 18.3148 53.8348 19.3587 53.0854 20.4442C52.5025 21.2769 51.9583 22.1542 51.4587 23.0701C51.0423 23.8612 50.7092 24.6552 50.3316 25.4879C49.7487 26.7399 49.2044 28.0306 49.4156 29.4492C49.4989 30.2402 49.7487 30.493 50.5427 30.2819C50.9174 30.1986 51.2505 30.0737 51.6282 29.9488C52.7137 29.4492 53.7129 28.8217 54.7151 28.0723C55.298 27.6143 55.5062 27.4061 55.8422 27.073C56.3418 26.5734 56.7582 26.2403 57.3024 25.7377C58.0102 25.1132 58.6793 24.5273 59.3871 23.9028C59.4704 23.8612 59.3455 24.1526 59.3039 24.2775C58.9291 24.9437 58.5961 25.5712 58.2184 26.1957C57.9686 26.6121 57.802 27.07 57.5522 27.4894C57.2191 28.1555 56.8444 28.8247 56.5084 29.4908C56.4251 29.6573 56.4667 29.9488 56.55 30.1153C56.6333 30.1986 56.9247 30.157 57.1329 30.1153C57.3827 30.0321 57.6325 29.8655 57.8823 29.699C58.5068 29.3659 59.0927 28.9912 59.7172 28.6997C60.3834 28.325 61.0942 28.0336 61.8019 27.7421" fill="#0D0D0B"/>
<path d="M45.9547 27.2392C45.7049 27.2808 46.1212 26.5314 46.3294 26.1537L47.1621 24.5686C47.9532 23.3582 48.7472 22.1925 49.5799 20.9821C49.7464 20.7323 49.913 20.4825 50.0795 20.2743C50.2877 19.9828 50.4959 19.6914 50.704 19.4L51.2869 18.6089C51.7033 18.1093 52.1196 17.6513 52.5389 17.1903L56.3753 12.0187C56.9165 11.2693 57.4608 10.4752 58.0437 9.76745C58.6682 8.97639 59.2957 8.18236 59.9202 7.39129C60.7113 6.43369 61.5053 5.43149 62.2964 4.47388C62.8376 3.80773 63.4235 3.18023 63.9231 2.55571C64.0064 2.43081 64.0896 2.3059 64.0896 2.13936C64.1313 1.84792 64.0064 1.76465 63.8398 1.76465C63.59 1.76465 63.3402 1.80628 63.0904 1.84792C62.2577 1.97282 61.4637 2.09773 60.631 2.22263C59.6734 2.38917 58.7128 2.55571 57.7552 2.72225C57.4637 2.76388 57.3388 2.93042 57.3388 3.18023C57.3388 3.43004 57.6303 3.38841 57.8385 3.38841C58.2548 3.38841 58.5046 3.34677 58.9656 3.34677C58.799 3.55494 58.7158 3.72148 58.5909 3.84639C58.0912 4.47091 57.547 5.09841 57.0474 5.72293C56.3396 6.63889 55.6288 7.55783 54.9211 8.4738C54.3798 9.18159 53.7939 9.89236 53.211 10.6001C52.6698 11.3079 52.1256 12.0187 51.5843 12.7265C50.7516 13.7703 49.916 14.8528 49.1249 15.8967C48.081 17.232 47.0818 18.6059 46.0796 19.9828C44.786 21.7761 43.5369 23.5694 42.3265 25.4043C41.6604 26.4035 41.0745 27.4057 40.45 28.4496C40.2002 28.8659 39.992 29.2823 39.7838 29.7016C39.7422 29.8265 39.7006 30.1179 39.8255 30.2012C39.9087 30.2429 40.1169 30.1596 40.2834 30.1179C40.9912 29.8681 41.6604 29.6183 42.3682 29.3685C43.3258 29.0354 44.2863 28.7024 45.2023 28.3693C45.8268 28.1195 47.0788 27.9113 47.1205 27.6615C47.1205 26.9953 46.7874 26.9953 45.9517 27.2451" fill="#0D0D0B"/>
<path d="M77.0172 22.0258C77.6417 21.4429 77.7667 20.9403 77.3919 20.1909C77.2254 19.7745 76.934 19.6496 76.476 19.7745C76.2678 19.8578 76.018 19.9411 75.8098 19.9827C74.6827 20.3574 73.6002 20.6905 72.4731 20.9819C71.8902 21.1485 70.7214 21.4399 70.6382 21.4399C70.5133 21.4399 70.7631 21.1068 70.8464 21.0652C71.346 20.5656 71.8902 19.9381 72.3898 19.4801C72.8478 19.0638 73.2225 18.7307 73.6418 18.2281C74.7689 16.8512 76.0596 16.0601 77.4782 15.0163C78.0194 14.6415 78.522 14.3917 78.8967 14.1419C79.2298 13.9338 79.2298 13.4758 78.8551 13.3509C78.4804 13.226 78.064 13.1843 77.6447 13.1011C76.5176 12.9345 75.9347 12.9761 75.0604 13.1011C74.8522 13.1427 74.6024 13.226 74.4359 13.3925C74.1444 13.6007 73.9363 13.8921 73.6864 14.1419C73.0203 14.8497 72.3095 15.5605 71.6434 16.2683C70.6441 17.3121 69.6419 18.3114 68.6427 19.3968C68.1014 19.9797 67.6851 20.6072 67.1825 21.1901C66.7661 21.7314 66.3914 22.2339 66.2249 22.9001C66.1 23.483 66.4331 24.0689 66.9743 24.0272C67.807 23.9439 68.3096 23.7774 69.1423 23.6109C69.5586 23.5276 70.8107 23.1945 70.769 23.2778C70.8939 23.2362 70.5609 23.6941 69.9363 24.1938C69.2285 24.7766 68.4761 25.3209 67.7684 25.8621C67.0606 26.4034 66.3498 26.9892 65.6004 27.5305C65.0175 27.9885 64.4316 28.4048 63.8487 28.8241C62.8911 29.5319 61.9722 30.2011 61.0146 30.8672C60.5982 31.1587 60.0986 31.4501 59.7626 31.7832C59.596 31.9914 59.2213 32.6159 59.1797 33.4932C59.1797 33.9512 59.3046 34.4092 59.7209 34.7868C60.0957 35.0783 60.2206 35.0366 60.5536 34.8701C61.0116 34.7036 61.3863 34.3705 61.8057 34.079C62.7633 33.4545 63.6822 32.8687 64.5982 32.2441C65.2227 31.8278 65.8085 31.2865 66.4331 30.8672C67.6851 29.9513 68.9341 28.949 70.0612 27.8665C70.4776 27.4918 70.8939 27.1171 71.3133 26.7394C72.0627 26.0733 72.8151 25.3625 73.5645 24.7796C74.8165 23.9053 75.9407 23.028 77.0261 22.0287" fill="#0D0D0B"/>
<path d="M56.0031 0.0517371C55.5035 -0.0731673 55.0455 0.0517371 54.5429 0.176641C53.499 0.468085 52.4582 0.801164 51.4143 1.17588C50.5816 1.46732 49.746 1.8004 48.9549 2.13348C48.2471 2.42492 47.5363 2.79963 46.8285 3.13271C45.7014 3.63233 44.5357 4.09031 43.4085 4.67617C42.1149 5.3007 40.9075 6.0531 39.6555 6.71925C38.4867 7.38541 37.3209 8.05454 36.1522 8.67906C35.1946 9.22032 34.1507 9.6783 33.1931 10.2225C31.608 11.1385 30.023 12.1407 28.4825 13.0983C28.1078 13.3481 27.733 13.6396 27.2721 13.7228C27.0223 13.7228 21.9339 14.0143 17.2649 14.3057H16.8069C13.5118 14.5139 10.5111 14.6804 9.59216 14.8053C8.59293 14.9302 8.09033 15.0135 7.88216 15.0551C7.04946 15.1384 6.54687 15.7629 5.92235 16.2239C5.00638 16.89 4.08745 17.5592 3.12984 18.267C2.17224 18.9748 1.17003 19.7272 0.212435 20.4766C0.0875301 20.5598 -0.0373743 20.8097 0.00426052 20.8929C0.0458953 21.0595 0.337339 21.1011 0.462243 21.1011H0.545513L2.38042 20.768L5.88369 20.1019L11.1802 19.2275C16.6433 18.1004 19.2693 18.0588 20.2715 18.1421C20.1466 18.2253 19.98 18.3502 19.8135 18.4335C18.3533 19.3495 16.8961 20.2684 15.4359 21.1844C14.6865 21.6424 13.9341 22.0171 13.2263 22.478C12.227 23.1025 11.2665 23.73 10.3089 24.3962C9.2234 25.1456 8.14089 25.898 7.05541 26.6475C6.8056 26.814 6.51416 26.9805 6.26435 27.1887C5.63983 27.6467 5.01233 28.1047 4.42945 28.6073C4.09637 28.8571 3.76329 29.1485 3.47184 29.4816C3.34694 29.6065 3.1804 29.773 3.13877 29.9812V30.1061C3.13877 30.1061 3.1804 30.2727 3.63838 30.1894C3.80492 30.1894 3.97146 30.1894 4.05473 30.1478C5.80637 30.1478 9.47618 30.1061 10.0174 29.8147C10.4754 29.5649 11.5609 28.8154 12.2687 28.2712C12.7683 27.9798 13.1847 27.6467 13.6456 27.3136C14.6895 26.4393 15.8969 25.8951 16.9823 25.104C18.5674 23.9352 20.1942 22.8944 21.8179 21.8505C23.9859 20.432 26.1539 19.0164 28.3219 17.5978C28.7382 17.3064 29.1546 17.0566 29.5739 16.8484L36.0778 16.3072C36.286 16.3072 36.4942 16.3072 36.6607 16.2655H36.7856C37.2853 16.1406 37.7432 15.8908 38.2042 15.4745C38.912 14.7667 39.6228 14.0559 40.3305 13.3481C40.4138 13.2648 40.4971 13.0567 40.4971 12.9734C40.4971 12.9318 40.2889 12.8901 40.1224 12.9318C40.0391 12.9318 39.9142 12.9318 39.8309 12.9734L34.6593 13.5979H34.6176C35.2838 13.1816 35.8697 12.8485 36.4942 12.5124C37.7046 11.8046 38.912 11.1355 40.0807 10.4277C40.7469 10.0114 41.3744 9.55339 42.0405 9.13407C43.6256 8.21811 45.2107 7.3408 46.7929 6.42484C47.5007 6.05012 48.9608 5.29772 48.9608 5.33936C49.0441 5.29772 45.7074 9.21734 44.6665 10.4694C43.8338 11.4686 43.0398 12.4292 42.2071 13.4284C41.5826 14.1778 40.9551 14.9302 40.3305 15.7213C39.6644 16.554 38.9536 17.4313 38.2875 18.3056C37.6629 19.0967 36.9938 19.8907 36.3693 20.6818C35.6615 21.5977 34.9924 22.5167 34.2846 23.391C33.6184 24.2237 32.9076 25.0594 32.2415 25.9337C31.4504 26.9776 30.7397 28.0184 29.9486 29.0623C29.7404 29.3537 29.5323 29.6868 29.3241 29.9782C29.2824 30.0615 29.1159 30.3946 29.1992 30.4779C29.2824 30.6028 31.1174 29.9782 31.9917 29.6868C32.866 29.3954 33.7433 29.1039 34.6176 28.8125C35.5336 28.4794 36.0778 28.3128 36.9938 27.9381C37.3685 27.7716 37.7849 27.6051 38.1209 27.3552C38.2458 27.272 38.3707 26.9805 38.3291 26.814C38.2875 26.5225 38.0377 26.4809 37.7878 26.5225C37.3299 26.5642 37.2882 26.5642 36.8302 26.6475C36.3306 26.7724 36.747 26.0646 36.9551 25.8148C37.538 25.0653 38.0823 24.2297 38.6651 23.4802C39.2897 22.6475 39.9588 21.8535 40.5833 21.0624C41.0413 20.4796 41.4577 19.8521 41.9186 19.3108C42.335 18.7696 42.8346 18.2253 43.2539 17.6841C43.7952 16.9763 44.3394 16.2239 44.8806 15.5577C45.3802 14.9332 45.9245 14.3473 46.4241 13.7228C47.2152 12.7652 47.9676 11.8046 48.7586 10.8887C49.6329 9.8032 50.5519 8.7207 51.4679 7.63522C51.9675 7.0107 53.8856 4.09031 54.3436 3.46579C54.3853 3.42416 54.4269 3.38252 54.4269 3.29925C54.4269 3.25762 54.4685 3.25762 54.4685 3.21598C54.6767 2.96617 54.8432 2.758 55.0098 2.50819C55.4261 1.9253 55.8008 1.29781 56.2202 0.71492C56.47 0.256937 56.3451 0.132033 56.012 0.0487632" fill="#0D0D0B"/>
</svg>
