<svg width="770" height="656" viewBox="0 0 770 656" fill="none" xmlns="http://www.w3.org/2000/svg">
<path d="M381.919 656H155.848C107.089 603.593 71.8427 547.992 46.9333 493.462C-4.73571 380.307 -11.4442 276.741 16.658 191.523C44.6011 106.762 105.511 45.6138 177.246 17.4699C248.766 -10.5617 332.857 -5.95518 400.394 43.8117C468.32 93.8965 507.161 180.287 509.435 291.764C511.637 400.395 546.573 455.755 578.495 480.932C610.697 506.312 649.779 509.457 682.053 496.257C713.712 483.305 738.957 454.573 743.204 411.625C747.575 367.394 730.383 295.799 648.071 202.718L648.051 202.679L754.958 108.159C760.129 114.006 765.143 119.849 770 125.685V611.192C759.152 617.768 747.808 623.48 736.086 628.279C658.597 660.003 564.7 651.752 490.106 592.954C415.222 533.934 369.524 432.293 366.713 294.658C365.048 213.849 338.248 175.283 315.649 158.623C292.622 141.666 261.285 137.751 229.334 150.285C197.617 162.745 166.982 191.289 152.175 236.182C137.498 280.658 136.816 346.765 176.729 434.161C210.333 507.737 271.201 589.711 381.919 656Z" fill="#FFD706"/>
</svg>
